<svg xmlns="http://www.w3.org/2000/svg" viewBox="0 0 900 420" width="100%" height="auto" style="max-width:900px">
  <defs>

    <!-- Chess tile background pattern -->
    <pattern id="chessPattern" x="0" y="0" width="44" height="44" patternUnits="userSpaceOnUse">
      <rect width="44" height="44" fill="transparent"/>
      <rect width="22" height="22" fill="#ffffff" fill-opacity="0.018"/>
      <rect x="22" y="22" width="22" height="22" fill="#ffffff" fill-opacity="0.018"/>
    </pattern>

    <!-- Chart area fill gradient -->
    <linearGradient id="fillGrad" x1="0" y1="0" x2="0" y2="1">
      <stop offset="0%"   stop-color="#00d26a" stop-opacity="0.35"/>
      <stop offset="40%"  stop-color="#81b64c" stop-opacity="0.18"/>
      <stop offset="100%" stop-color="#0d1117" stop-opacity="0"/>
    </linearGradient>

    <!-- Line stroke gradient -->
    <linearGradient id="lineGrad" x1="0" y1="0" x2="1" y2="0">
      <stop offset="0%"   stop-color="#3ecf8e"/>
      <stop offset="35%"  stop-color="#81b64c"/>
      <stop offset="70%"  stop-color="#a8d660"/>
      <stop offset="100%" stop-color="#58f0a0"/>
    </linearGradient>

    <!-- Background card gradient -->
    <linearGradient id="bgGrad" x1="0" y1="0" x2="0.3" y2="1">
      <stop offset="0%"   stop-color="#161b22"/>
      <stop offset="100%" stop-color="#0d1117"/>
    </linearGradient>

    <!-- Glow filter for peak/curr dots -->
    <filter id="glow" x="-50%" y="-50%" width="200%" height="200%">
      <feGaussianBlur stdDeviation="4" result="b"/>
      <feMerge><feMergeNode in="b"/><feMergeNode in="SourceGraphic"/></feMerge>
    </filter>

    <!-- Stronger glow for peak -->
    <filter id="peakGlow" x="-80%" y="-80%" width="260%" height="260%">
      <feGaussianBlur stdDeviation="6" result="b"/>
      <feMerge><feMergeNode in="b"/><feMergeNode in="SourceGraphic"/></feMerge>
    </filter>

    <!-- Soft shadow for card -->
    <filter id="shadow" x="-4%" y="-4%" width="108%" height="116%">
      <feDropShadow dx="0" dy="8" stdDeviation="14" flood-color="#000" flood-opacity="0.55"/>
    </filter>

    <!-- Line glow -->
    <filter id="lineGlow" x="-5%" y="-50%" width="110%" height="200%">
      <feGaussianBlur stdDeviation="5" result="b"/>
      <feMerge><feMergeNode in="b"/><feMergeNode in="SourceGraphic"/></feMerge>
    </filter>

  </defs>

  <!-- ── CARD BACKGROUND ── -->
  <rect width="900" height="420" rx="16" fill="url(#bgGrad)" stroke="#30363d" stroke-width="1.2" filter="url(#shadow)"/>

  <!-- Chess tile texture overlay -->
  <rect width="900" height="420" rx="16" fill="url(#chessPattern)"/>

  <!-- Accent top border strip -->
  <rect x="0" y="0" width="900" height="3" rx="2" fill="url(#lineGrad)" opacity="0.9"/>

  <!-- ── HEADER ── -->
  <!-- Chess icon circle -->
  <circle cx="34" cy="46" r="18" fill="#1c2128" stroke="#30363d" stroke-width="1.2"/>
  <text x="34" y="52" text-anchor="middle" font-size="18" fill="white">♟</text>

  <!-- Title text -->
  <text x="62" y="38" font-family="'Segoe UI',system-ui,-apple-system,sans-serif"
        font-size="18" font-weight="700" fill="#f0f6fc" letter-spacing="-0.3">Chess.com Rating Progression</text>
  <text x="62" y="57" font-family="'Segoe UI',system-ui,sans-serif"
        font-size="12" fill="#6e7681">Rapid · 2,351 games · @ashumm · Aug 2025 – Sep 2026</text>

  <!-- ── KPI BADGE ROW ── -->
  <!-- Current Rating -->
  <g transform="translate(470, 14)">
    <rect width="96" height="56" rx="10" fill="#1c2128" stroke="#238636" stroke-width="1.2"/>
    <text x="48" y="20" text-anchor="middle" font-family="'Segoe UI',sans-serif"
          font-size="9" font-weight="700" fill="#3fb950" letter-spacing="0.8">CURRENT</text>
    <text x="48" y="42" text-anchor="middle" font-family="'Segoe UI',sans-serif"
          font-size="22" font-weight="900" fill="#3fb950">1039</text>
  </g>

  <!-- Peak Rating -->
  <g transform="translate(576, 14)">
    <rect width="96" height="56" rx="10" fill="#1c2128" stroke="#9e6a03" stroke-width="1.2"/>
    <text x="48" y="20" text-anchor="middle" font-family="'Segoe UI',sans-serif"
          font-size="9" font-weight="700" fill="#d29922" letter-spacing="0.8">PEAK &#9813;</text>
    <text x="48" y="42" text-anchor="middle" font-family="'Segoe UI',sans-serif"
          font-size="22" font-weight="900" fill="#d29922">1232</text>
  </g>

  <!-- Total Gain -->
  <g transform="translate(682, 14)">
    <rect width="96" height="56" rx="10" fill="#1c2128" stroke="#1f6feb" stroke-width="1.2"/>
    <text x="48" y="20" text-anchor="middle" font-family="'Segoe UI',sans-serif"
          font-size="9" font-weight="700" fill="#58a6ff" letter-spacing="0.8">GAIN &#128200;</text>
    <text x="48" y="42" text-anchor="middle" font-family="'Segoe UI',sans-serif"
          font-size="22" font-weight="900" fill="#58a6ff">+801</text>
  </g>

  <!-- Games -->
  <g transform="translate(788, 14)">
    <rect width="96" height="56" rx="10" fill="#1c2128" stroke="#6e40c9" stroke-width="1.2"/>
    <text x="48" y="20" text-anchor="middle" font-family="'Segoe UI',sans-serif"
          font-size="9" font-weight="700" fill="#bc8cff" letter-spacing="0.8">GAMES</text>
    <text x="48" y="42" text-anchor="middle" font-family="'Segoe UI',sans-serif"
          font-size="22" font-weight="900" fill="#bc8cff">2,351</text>
  </g>

  <!-- ── GRID ── -->
  
    <line x1="70" y1="360.0" x2="860" y2="360.0" stroke="#ffffff" stroke-width="0.6" stroke-dasharray="4 6" stroke-opacity="0.08" />
    <text x="60" y="364.0" text-anchor="end" fill="#6e7681" font-size="11" font-family="'Segoe UI',system-ui,sans-serif" font-weight="600">158</text>
    <line x1="70" y1="312.2" x2="860" y2="312.2" stroke="#ffffff" stroke-width="0.6" stroke-dasharray="4 6" stroke-opacity="0.08" />
    <text x="60" y="316.2" text-anchor="end" fill="#6e7681" font-size="11" font-family="'Segoe UI',system-ui,sans-serif" font-weight="600">402</text>
    <line x1="70" y1="264.1" x2="860" y2="264.1" stroke="#ffffff" stroke-width="0.6" stroke-dasharray="4 6" stroke-opacity="0.08" />
    <text x="60" y="268.1" text-anchor="end" fill="#6e7681" font-size="11" font-family="'Segoe UI',system-ui,sans-serif" font-weight="600">647</text>
    <line x1="70" y1="216.1" x2="860" y2="216.1" stroke="#ffffff" stroke-width="0.6" stroke-dasharray="4 6" stroke-opacity="0.08" />
    <text x="60" y="220.1" text-anchor="end" fill="#6e7681" font-size="11" font-family="'Segoe UI',system-ui,sans-serif" font-weight="600">892</text>
    <line x1="70" y1="168.0" x2="860" y2="168.0" stroke="#ffffff" stroke-width="0.6" stroke-dasharray="4 6" stroke-opacity="0.08" />
    <text x="60" y="172.0" text-anchor="end" fill="#6e7681" font-size="11" font-family="'Segoe UI',system-ui,sans-serif" font-weight="600">1137</text>
    <line x1="70" y1="120.0" x2="860" y2="120.0" stroke="#ffffff" stroke-width="0.6" stroke-dasharray="4 6" stroke-opacity="0.08" />
    <text x="60" y="124.0" text-anchor="end" fill="#6e7681" font-size="11" font-family="'Segoe UI',system-ui,sans-serif" font-weight="600">1382</text>
  
    <line x1="70.0" y1="120" x2="70.0" y2="360" stroke="#ffffff" stroke-width="0.5" stroke-opacity="0.06" />
    <text x="70.0" y="382.0" text-anchor="middle" fill="#6e7681" font-size="10" font-family="'Segoe UI',system-ui,sans-serif" font-weight="600">Aug'25</text>
    <line x1="201.7" y1="120" x2="201.7" y2="360" stroke="#ffffff" stroke-width="0.5" stroke-opacity="0.06" />
    <text x="201.7" y="382.0" text-anchor="middle" fill="#6e7681" font-size="10" font-family="'Segoe UI',system-ui,sans-serif" font-weight="600">Oct'25</text>
    <line x1="333.3" y1="120" x2="333.3" y2="360" stroke="#ffffff" stroke-width="0.5" stroke-opacity="0.06" />
    <text x="333.3" y="382.0" text-anchor="middle" fill="#6e7681" font-size="10" font-family="'Segoe UI',system-ui,sans-serif" font-weight="600">Jan'26</text>
    <line x1="465.0" y1="120" x2="465.0" y2="360" stroke="#ffffff" stroke-width="0.5" stroke-opacity="0.06" />
    <text x="465.0" y="382.0" text-anchor="middle" fill="#6e7681" font-size="10" font-family="'Segoe UI',system-ui,sans-serif" font-weight="600">Mar'26</text>
    <line x1="596.7" y1="120" x2="596.7" y2="360" stroke="#ffffff" stroke-width="0.5" stroke-opacity="0.06" />
    <text x="596.7" y="382.0" text-anchor="middle" fill="#6e7681" font-size="10" font-family="'Segoe UI',system-ui,sans-serif" font-weight="600">May'26</text>
    <line x1="728.3" y1="120" x2="728.3" y2="360" stroke="#ffffff" stroke-width="0.5" stroke-opacity="0.06" />
    <text x="728.3" y="382.0" text-anchor="middle" fill="#6e7681" font-size="10" font-family="'Segoe UI',system-ui,sans-serif" font-weight="600">Jul'26</text>
    <line x1="860.0" y1="120" x2="860.0" y2="360" stroke="#ffffff" stroke-width="0.5" stroke-opacity="0.06" />
    <text x="860.0" y="382.0" text-anchor="middle" fill="#6e7681" font-size="10" font-family="'Segoe UI',system-ui,sans-serif" font-weight="600">Oct'26</text>

  <!-- Baseline -->
  <line x1="70" y1="360" x2="860" y2="360" stroke="#30363d" stroke-width="1.5"/>
  <line x1="70" y1="120" x2="70" y2="360" stroke="#30363d" stroke-width="1"/>

  <!-- ── CHART ── -->

  <!-- Ghost/static trace (always visible, very faint) -->
  <path d="M 70.00 344.31 C 70.17 316.08 69.61 300.78 70.43 273.73 C 71.25 246.67 70.99 279.33 72.05 276.67 C 73.10 274.00 72.42 270.20 73.06 267.06 C 73.70 263.92 72.61 266.86 73.65 268.82 C 74.69 270.78 73.25 273.61 75.66 271.96 C 78.06 270.31 76.35 264.86 79.66 264.71 C 82.97 264.55 80.67 273.06 83.93 271.57 C 87.20 270.08 84.24 265.45 87.82 260.98 C 91.40 256.51 85.29 261.33 92.88 260.39 C 100.48 259.45 100.46 259.96 106.81 258.63 C 113.16 257.29 107.81 260.35 108.77 257.06 C 109.73 253.76 107.48 255.41 109.21 250.39 C 110.93 245.37 108.38 249.14 113.08 244.51 C 117.79 239.88 114.94 243.76 120.98 238.82 C 127.01 233.88 125.03 236.16 128.16 232.16 C 131.30 228.16 128.04 229.45 128.82 228.82 C 129.60 228.20 129.09 231.92 130.11 230.59 C 131.14 229.25 130.58 227.53 131.37 225.49 C 132.16 223.45 130.96 225.49 132.09 225.49 C 133.22 225.49 133.13 224.86 134.20 225.49 C 135.27 226.12 133.78 225.88 134.76 227.06 C 135.74 228.24 134.52 228.82 136.66 228.43 C 138.80 228.04 137.94 227.10 140.11 226.08 C 142.28 225.06 139.54 225.41 142.08 225.88 C 144.63 226.35 144.29 228.20 146.46 227.25 C 148.64 226.31 146.54 225.49 147.52 223.53 C 148.50 221.57 148.24 220.86 148.91 222.35 C 149.57 223.84 148.97 219.57 149.19 227.25 C 149.40 234.94 149.03 238.98 149.45 241.57 C 149.87 244.16 149.65 233.02 150.23 233.73 C 150.80 234.43 150.46 235.02 150.89 243.33 C 151.32 251.65 150.77 253.10 151.30 254.51 C 151.83 255.92 151.42 253.76 152.22 246.86 C 153.01 239.96 149.06 233.49 153.28 237.25 C 157.50 241.02 157.00 249.06 162.77 256.27 C 168.53 263.49 164.57 258.82 167.70 255.29 C 170.83 251.76 167.51 248.24 170.59 247.45 C 173.66 246.67 172.94 249.73 175.38 253.33 C 177.83 256.94 174.54 258.27 176.70 256.47 C 178.86 254.67 176.78 252.12 180.78 248.82 C 184.78 245.53 182.71 254.35 186.70 248.24 C 190.69 242.12 188.50 241.22 190.75 233.53 C 193.01 225.84 190.32 232.31 192.34 229.02 C 194.36 225.73 193.43 226.78 195.81 225.29 C 198.18 223.80 196.29 223.88 198.28 225.29 C 200.27 226.71 197.77 224.98 200.78 228.82 C 203.80 232.67 202.74 236.47 205.82 234.90 C 208.91 233.33 206.73 225.84 208.49 224.90 C 210.25 223.96 209.14 225.25 210.23 232.55 C 211.31 239.84 210.23 239.53 211.20 243.14 C 212.18 246.75 211.46 240.16 212.67 241.57 C 213.87 242.98 212.77 250.51 214.21 246.67 C 215.65 242.82 214.03 241.84 216.26 231.96 C 218.50 222.08 215.84 223.76 219.79 221.96 C 223.74 220.16 222.99 223.37 226.14 227.45 C 229.28 231.53 226.09 229.73 227.65 232.16 C 229.22 234.59 226.73 234.31 230.05 233.53 C 233.36 232.75 231.61 237.33 235.94 230.20 C 240.27 223.06 237.88 221.41 240.88 215.69 C 243.87 209.96 241.29 218.39 243.43 215.88 C 245.56 213.37 244.69 210.82 246.22 209.41 C 247.75 208.00 246.43 204.90 247.25 212.35 C 248.06 219.80 247.02 224.12 248.26 228.04 C 249.50 231.96 247.32 228.98 250.34 222.16 C 253.36 215.33 253.14 216.55 255.81 210.98 C 258.49 205.41 255.00 209.49 257.03 208.24 C 259.05 206.98 256.23 208.47 260.88 207.84 C 265.54 207.22 247.94 207.29 268.66 206.67 C 289.39 206.04 290.13 207.06 312.70 206.27 C 335.27 205.49 319.00 203.22 325.08 204.71 C 331.16 206.20 323.26 208.75 327.90 210.00 C 332.54 211.25 330.93 209.02 336.68 207.84 C 342.44 206.67 339.58 208.63 342.29 207.06 C 344.99 205.49 337.96 200.78 343.45 203.92 C 348.93 207.06 350.09 210.43 355.99 214.90 C 361.89 219.37 354.31 218.16 358.20 215.10 C 362.09 212.04 361.86 212.67 365.72 207.25 C 369.58 201.84 366.14 200.71 367.84 201.57 C 369.54 202.43 367.65 208.24 369.97 209.41 C 372.29 210.59 370.64 207.57 373.65 204.51 C 376.66 201.45 375.12 202.86 377.50 201.76 C 379.87 200.67 377.35 201.84 379.59 201.76 C 381.82 201.69 380.00 202.82 383.08 201.57 C 386.16 200.31 384.89 199.96 387.29 198.63 C 389.69 197.29 387.23 201.14 389.08 198.24 C 390.93 195.33 389.64 194.98 391.91 191.37 C 394.18 187.76 391.18 190.78 394.77 189.22 C 398.35 187.65 396.11 187.69 400.88 187.45 C 405.64 187.22 402.76 187.69 406.69 188.63 C 410.62 189.57 407.58 188.24 410.71 189.80 C 413.83 191.37 410.33 192.47 414.51 192.55 C 418.69 192.63 417.26 190.24 421.15 190.00 C 425.04 189.76 418.39 192.35 424.24 191.96 C 430.09 191.57 428.76 191.84 435.77 189.02 C 442.78 186.20 437.42 189.14 441.77 184.90 C 446.12 180.67 443.76 182.27 446.65 178.43 C 449.55 174.59 447.86 172.63 449.00 175.29 C 450.15 177.96 448.54 181.10 449.52 185.10 C 450.49 189.10 449.85 184.12 451.44 185.29 C 453.03 186.47 450.40 185.45 453.49 188.04 C 456.57 190.63 456.82 188.24 459.15 191.76 C 461.49 195.29 457.39 197.96 459.33 196.86 C 461.28 195.76 461.54 191.37 464.01 189.02 C 466.48 186.67 461.23 187.61 465.52 190.98 C 469.81 194.35 470.94 196.35 474.73 197.45 C 478.52 198.55 474.18 194.67 475.00 193.73 C 475.81 192.78 475.28 193.61 476.77 195.10 C 478.26 196.59 474.05 195.73 478.72 197.45 C 483.39 199.18 483.06 203.41 488.46 199.41 C 493.85 195.41 489.86 189.57 492.21 187.45 C 494.56 185.33 490.48 192.24 494.33 194.12 C 498.18 196.00 497.19 194.20 501.84 192.16 C 506.49 190.12 498.91 194.59 505.95 189.02 C 512.99 183.45 513.27 178.24 519.45 178.24 C 525.62 178.24 519.03 184.55 521.39 189.02 C 523.75 193.49 522.33 189.33 525.34 189.41 C 528.36 189.49 525.83 190.08 528.93 189.22 C 532.03 188.35 530.84 188.67 533.08 187.25 C 535.32 185.84 529.92 188.12 534.52 185.69 C 539.13 183.25 540.03 185.41 544.60 181.18 C 549.16 176.94 543.17 178.78 545.93 175.10 C 548.70 171.41 548.99 172.75 551.50 171.96 C 554.01 171.18 551.76 173.84 552.21 173.14 C 552.67 172.43 550.17 166.51 552.64 170.20 C 555.11 173.88 554.55 176.63 558.39 182.35 C 562.23 188.08 558.40 187.33 562.24 184.51 C 566.09 181.69 564.11 175.22 568.01 175.29 C 571.91 175.37 566.54 181.41 572.01 184.71 C 577.48 188.00 572.45 187.92 581.68 183.53 C 590.92 179.14 582.85 177.65 595.09 173.73 C 607.32 169.80 604.40 174.43 612.27 173.73 C 620.13 173.02 612.39 171.02 614.75 171.96 C 617.12 172.90 616.02 179.61 618.18 176.08 C 620.34 172.55 617.79 165.18 620.16 163.14 C 622.54 161.10 620.06 166.59 624.11 170.98 C 628.16 175.37 627.09 169.10 630.29 174.12 C 633.48 179.14 626.08 180.31 632.11 183.53 C 638.15 186.75 632.10 187.25 645.38 182.16 C 658.65 177.06 621.57 178.94 665.29 170.78 C 709.01 162.63 692.51 166.63 754.68 161.76 C 816.86 156.90 791.95 163.57 820.73 158.63 C 849.51 153.69 823.49 152.47 826.63 149.41 C 829.77 146.35 824.69 148.39 828.58 150.98 C 832.47 153.57 833.19 150.47 836.35 155.88 C 839.51 161.29 835.66 164.12 836.49 164.51 C 837.32 164.90 836.93 158.20 838.42 156.86 C 839.92 155.53 839.44 156.31 840.23 161.18 C 841.02 166.04 837.30 165.33 840.40 169.02 C 843.51 172.71 840.23 166.08 848.00 170.39 C 855.76 174.71 855.02 173.06 859.82 179.80 C 864.62 186.55 859.93 184.27 860.00 187.25" fill="none" stroke="#3fb950" stroke-width="1.2"
        stroke-linecap="round" stroke-linejoin="round" opacity="0.15"/>

  <!-- Animated area fill -->
  <path d="M 70.00 344.31 C 70.17 316.08 69.61 300.78 70.43 273.73 C 71.25 246.67 70.99 279.33 72.05 276.67 C 73.10 274.00 72.42 270.20 73.06 267.06 C 73.70 263.92 72.61 266.86 73.65 268.82 C 74.69 270.78 73.25 273.61 75.66 271.96 C 78.06 270.31 76.35 264.86 79.66 264.71 C 82.97 264.55 80.67 273.06 83.93 271.57 C 87.20 270.08 84.24 265.45 87.82 260.98 C 91.40 256.51 85.29 261.33 92.88 260.39 C 100.48 259.45 100.46 259.96 106.81 258.63 C 113.16 257.29 107.81 260.35 108.77 257.06 C 109.73 253.76 107.48 255.41 109.21 250.39 C 110.93 245.37 108.38 249.14 113.08 244.51 C 117.79 239.88 114.94 243.76 120.98 238.82 C 127.01 233.88 125.03 236.16 128.16 232.16 C 131.30 228.16 128.04 229.45 128.82 228.82 C 129.60 228.20 129.09 231.92 130.11 230.59 C 131.14 229.25 130.58 227.53 131.37 225.49 C 132.16 223.45 130.96 225.49 132.09 225.49 C 133.22 225.49 133.13 224.86 134.20 225.49 C 135.27 226.12 133.78 225.88 134.76 227.06 C 135.74 228.24 134.52 228.82 136.66 228.43 C 138.80 228.04 137.94 227.10 140.11 226.08 C 142.28 225.06 139.54 225.41 142.08 225.88 C 144.63 226.35 144.29 228.20 146.46 227.25 C 148.64 226.31 146.54 225.49 147.52 223.53 C 148.50 221.57 148.24 220.86 148.91 222.35 C 149.57 223.84 148.97 219.57 149.19 227.25 C 149.40 234.94 149.03 238.98 149.45 241.57 C 149.87 244.16 149.65 233.02 150.23 233.73 C 150.80 234.43 150.46 235.02 150.89 243.33 C 151.32 251.65 150.77 253.10 151.30 254.51 C 151.83 255.92 151.42 253.76 152.22 246.86 C 153.01 239.96 149.06 233.49 153.28 237.25 C 157.50 241.02 157.00 249.06 162.77 256.27 C 168.53 263.49 164.57 258.82 167.70 255.29 C 170.83 251.76 167.51 248.24 170.59 247.45 C 173.66 246.67 172.94 249.73 175.38 253.33 C 177.83 256.94 174.54 258.27 176.70 256.47 C 178.86 254.67 176.78 252.12 180.78 248.82 C 184.78 245.53 182.71 254.35 186.70 248.24 C 190.69 242.12 188.50 241.22 190.75 233.53 C 193.01 225.84 190.32 232.31 192.34 229.02 C 194.36 225.73 193.43 226.78 195.81 225.29 C 198.18 223.80 196.29 223.88 198.28 225.29 C 200.27 226.71 197.77 224.98 200.78 228.82 C 203.80 232.67 202.74 236.47 205.82 234.90 C 208.91 233.33 206.73 225.84 208.49 224.90 C 210.25 223.96 209.14 225.25 210.23 232.55 C 211.31 239.84 210.23 239.53 211.20 243.14 C 212.18 246.75 211.46 240.16 212.67 241.57 C 213.87 242.98 212.77 250.51 214.21 246.67 C 215.65 242.82 214.03 241.84 216.26 231.96 C 218.50 222.08 215.84 223.76 219.79 221.96 C 223.74 220.16 222.99 223.37 226.14 227.45 C 229.28 231.53 226.09 229.73 227.65 232.16 C 229.22 234.59 226.73 234.31 230.05 233.53 C 233.36 232.75 231.61 237.33 235.94 230.20 C 240.27 223.06 237.88 221.41 240.88 215.69 C 243.87 209.96 241.29 218.39 243.43 215.88 C 245.56 213.37 244.69 210.82 246.22 209.41 C 247.75 208.00 246.43 204.90 247.25 212.35 C 248.06 219.80 247.02 224.12 248.26 228.04 C 249.50 231.96 247.32 228.98 250.34 222.16 C 253.36 215.33 253.14 216.55 255.81 210.98 C 258.49 205.41 255.00 209.49 257.03 208.24 C 259.05 206.98 256.23 208.47 260.88 207.84 C 265.54 207.22 247.94 207.29 268.66 206.67 C 289.39 206.04 290.13 207.06 312.70 206.27 C 335.27 205.49 319.00 203.22 325.08 204.71 C 331.16 206.20 323.26 208.75 327.90 210.00 C 332.54 211.25 330.93 209.02 336.68 207.84 C 342.44 206.67 339.58 208.63 342.29 207.06 C 344.99 205.49 337.96 200.78 343.45 203.92 C 348.93 207.06 350.09 210.43 355.99 214.90 C 361.89 219.37 354.31 218.16 358.20 215.10 C 362.09 212.04 361.86 212.67 365.72 207.25 C 369.58 201.84 366.14 200.71 367.84 201.57 C 369.54 202.43 367.65 208.24 369.97 209.41 C 372.29 210.59 370.64 207.57 373.65 204.51 C 376.66 201.45 375.12 202.86 377.50 201.76 C 379.87 200.67 377.35 201.84 379.59 201.76 C 381.82 201.69 380.00 202.82 383.08 201.57 C 386.16 200.31 384.89 199.96 387.29 198.63 C 389.69 197.29 387.23 201.14 389.08 198.24 C 390.93 195.33 389.64 194.98 391.91 191.37 C 394.18 187.76 391.18 190.78 394.77 189.22 C 398.35 187.65 396.11 187.69 400.88 187.45 C 405.64 187.22 402.76 187.69 406.69 188.63 C 410.62 189.57 407.58 188.24 410.71 189.80 C 413.83 191.37 410.33 192.47 414.51 192.55 C 418.69 192.63 417.26 190.24 421.15 190.00 C 425.04 189.76 418.39 192.35 424.24 191.96 C 430.09 191.57 428.76 191.84 435.77 189.02 C 442.78 186.20 437.42 189.14 441.77 184.90 C 446.12 180.67 443.76 182.27 446.65 178.43 C 449.55 174.59 447.86 172.63 449.00 175.29 C 450.15 177.96 448.54 181.10 449.52 185.10 C 450.49 189.10 449.85 184.12 451.44 185.29 C 453.03 186.47 450.40 185.45 453.49 188.04 C 456.57 190.63 456.82 188.24 459.15 191.76 C 461.49 195.29 457.39 197.96 459.33 196.86 C 461.28 195.76 461.54 191.37 464.01 189.02 C 466.48 186.67 461.23 187.61 465.52 190.98 C 469.81 194.35 470.94 196.35 474.73 197.45 C 478.52 198.55 474.18 194.67 475.00 193.73 C 475.81 192.78 475.28 193.61 476.77 195.10 C 478.26 196.59 474.05 195.73 478.72 197.45 C 483.39 199.18 483.06 203.41 488.46 199.41 C 493.85 195.41 489.86 189.57 492.21 187.45 C 494.56 185.33 490.48 192.24 494.33 194.12 C 498.18 196.00 497.19 194.20 501.84 192.16 C 506.49 190.12 498.91 194.59 505.95 189.02 C 512.99 183.45 513.27 178.24 519.45 178.24 C 525.62 178.24 519.03 184.55 521.39 189.02 C 523.75 193.49 522.33 189.33 525.34 189.41 C 528.36 189.49 525.83 190.08 528.93 189.22 C 532.03 188.35 530.84 188.67 533.08 187.25 C 535.32 185.84 529.92 188.12 534.52 185.69 C 539.13 183.25 540.03 185.41 544.60 181.18 C 549.16 176.94 543.17 178.78 545.93 175.10 C 548.70 171.41 548.99 172.75 551.50 171.96 C 554.01 171.18 551.76 173.84 552.21 173.14 C 552.67 172.43 550.17 166.51 552.64 170.20 C 555.11 173.88 554.55 176.63 558.39 182.35 C 562.23 188.08 558.40 187.33 562.24 184.51 C 566.09 181.69 564.11 175.22 568.01 175.29 C 571.91 175.37 566.54 181.41 572.01 184.71 C 577.48 188.00 572.45 187.92 581.68 183.53 C 590.92 179.14 582.85 177.65 595.09 173.73 C 607.32 169.80 604.40 174.43 612.27 173.73 C 620.13 173.02 612.39 171.02 614.75 171.96 C 617.12 172.90 616.02 179.61 618.18 176.08 C 620.34 172.55 617.79 165.18 620.16 163.14 C 622.54 161.10 620.06 166.59 624.11 170.98 C 628.16 175.37 627.09 169.10 630.29 174.12 C 633.48 179.14 626.08 180.31 632.11 183.53 C 638.15 186.75 632.10 187.25 645.38 182.16 C 658.65 177.06 621.57 178.94 665.29 170.78 C 709.01 162.63 692.51 166.63 754.68 161.76 C 816.86 156.90 791.95 163.57 820.73 158.63 C 849.51 153.69 823.49 152.47 826.63 149.41 C 829.77 146.35 824.69 148.39 828.58 150.98 C 832.47 153.57 833.19 150.47 836.35 155.88 C 839.51 161.29 835.66 164.12 836.49 164.51 C 837.32 164.90 836.93 158.20 838.42 156.86 C 839.92 155.53 839.44 156.31 840.23 161.18 C 841.02 166.04 837.30 165.33 840.40 169.02 C 843.51 172.71 840.23 166.08 848.00 170.39 C 855.76 174.71 855.02 173.06 859.82 179.80 C 864.62 186.55 859.93 184.27 860.00 187.25 L 860.00 360 L 70.00 360 Z" fill="url(#fillGrad)">
    <animate attributeName="opacity" dur="4.5s" repeatCount="indefinite"
      keyTimes="0;0.15;0.55;0.82;0.94;1"
      values="0;0.1;1;1;0;0" calcMode="linear"/>
  </path>

  <!-- Animated glow duplicate line (blurred, wider) -->
  <path d="M 70.00 344.31 C 70.17 316.08 69.61 300.78 70.43 273.73 C 71.25 246.67 70.99 279.33 72.05 276.67 C 73.10 274.00 72.42 270.20 73.06 267.06 C 73.70 263.92 72.61 266.86 73.65 268.82 C 74.69 270.78 73.25 273.61 75.66 271.96 C 78.06 270.31 76.35 264.86 79.66 264.71 C 82.97 264.55 80.67 273.06 83.93 271.57 C 87.20 270.08 84.24 265.45 87.82 260.98 C 91.40 256.51 85.29 261.33 92.88 260.39 C 100.48 259.45 100.46 259.96 106.81 258.63 C 113.16 257.29 107.81 260.35 108.77 257.06 C 109.73 253.76 107.48 255.41 109.21 250.39 C 110.93 245.37 108.38 249.14 113.08 244.51 C 117.79 239.88 114.94 243.76 120.98 238.82 C 127.01 233.88 125.03 236.16 128.16 232.16 C 131.30 228.16 128.04 229.45 128.82 228.82 C 129.60 228.20 129.09 231.92 130.11 230.59 C 131.14 229.25 130.58 227.53 131.37 225.49 C 132.16 223.45 130.96 225.49 132.09 225.49 C 133.22 225.49 133.13 224.86 134.20 225.49 C 135.27 226.12 133.78 225.88 134.76 227.06 C 135.74 228.24 134.52 228.82 136.66 228.43 C 138.80 228.04 137.94 227.10 140.11 226.08 C 142.28 225.06 139.54 225.41 142.08 225.88 C 144.63 226.35 144.29 228.20 146.46 227.25 C 148.64 226.31 146.54 225.49 147.52 223.53 C 148.50 221.57 148.24 220.86 148.91 222.35 C 149.57 223.84 148.97 219.57 149.19 227.25 C 149.40 234.94 149.03 238.98 149.45 241.57 C 149.87 244.16 149.65 233.02 150.23 233.73 C 150.80 234.43 150.46 235.02 150.89 243.33 C 151.32 251.65 150.77 253.10 151.30 254.51 C 151.83 255.92 151.42 253.76 152.22 246.86 C 153.01 239.96 149.06 233.49 153.28 237.25 C 157.50 241.02 157.00 249.06 162.77 256.27 C 168.53 263.49 164.57 258.82 167.70 255.29 C 170.83 251.76 167.51 248.24 170.59 247.45 C 173.66 246.67 172.94 249.73 175.38 253.33 C 177.83 256.94 174.54 258.27 176.70 256.47 C 178.86 254.67 176.78 252.12 180.78 248.82 C 184.78 245.53 182.71 254.35 186.70 248.24 C 190.69 242.12 188.50 241.22 190.75 233.53 C 193.01 225.84 190.32 232.31 192.34 229.02 C 194.36 225.73 193.43 226.78 195.81 225.29 C 198.18 223.80 196.29 223.88 198.28 225.29 C 200.27 226.71 197.77 224.98 200.78 228.82 C 203.80 232.67 202.74 236.47 205.82 234.90 C 208.91 233.33 206.73 225.84 208.49 224.90 C 210.25 223.96 209.14 225.25 210.23 232.55 C 211.31 239.84 210.23 239.53 211.20 243.14 C 212.18 246.75 211.46 240.16 212.67 241.57 C 213.87 242.98 212.77 250.51 214.21 246.67 C 215.65 242.82 214.03 241.84 216.26 231.96 C 218.50 222.08 215.84 223.76 219.79 221.96 C 223.74 220.16 222.99 223.37 226.14 227.45 C 229.28 231.53 226.09 229.73 227.65 232.16 C 229.22 234.59 226.73 234.31 230.05 233.53 C 233.36 232.75 231.61 237.33 235.94 230.20 C 240.27 223.06 237.88 221.41 240.88 215.69 C 243.87 209.96 241.29 218.39 243.43 215.88 C 245.56 213.37 244.69 210.82 246.22 209.41 C 247.75 208.00 246.43 204.90 247.25 212.35 C 248.06 219.80 247.02 224.12 248.26 228.04 C 249.50 231.96 247.32 228.98 250.34 222.16 C 253.36 215.33 253.14 216.55 255.81 210.98 C 258.49 205.41 255.00 209.49 257.03 208.24 C 259.05 206.98 256.23 208.47 260.88 207.84 C 265.54 207.22 247.94 207.29 268.66 206.67 C 289.39 206.04 290.13 207.06 312.70 206.27 C 335.27 205.49 319.00 203.22 325.08 204.71 C 331.16 206.20 323.26 208.75 327.90 210.00 C 332.54 211.25 330.93 209.02 336.68 207.84 C 342.44 206.67 339.58 208.63 342.29 207.06 C 344.99 205.49 337.96 200.78 343.45 203.92 C 348.93 207.06 350.09 210.43 355.99 214.90 C 361.89 219.37 354.31 218.16 358.20 215.10 C 362.09 212.04 361.86 212.67 365.72 207.25 C 369.58 201.84 366.14 200.71 367.84 201.57 C 369.54 202.43 367.65 208.24 369.97 209.41 C 372.29 210.59 370.64 207.57 373.65 204.51 C 376.66 201.45 375.12 202.86 377.50 201.76 C 379.87 200.67 377.35 201.84 379.59 201.76 C 381.82 201.69 380.00 202.82 383.08 201.57 C 386.16 200.31 384.89 199.96 387.29 198.63 C 389.69 197.29 387.23 201.14 389.08 198.24 C 390.93 195.33 389.64 194.98 391.91 191.37 C 394.18 187.76 391.18 190.78 394.77 189.22 C 398.35 187.65 396.11 187.69 400.88 187.45 C 405.64 187.22 402.76 187.69 406.69 188.63 C 410.62 189.57 407.58 188.24 410.71 189.80 C 413.83 191.37 410.33 192.47 414.51 192.55 C 418.69 192.63 417.26 190.24 421.15 190.00 C 425.04 189.76 418.39 192.35 424.24 191.96 C 430.09 191.57 428.76 191.84 435.77 189.02 C 442.78 186.20 437.42 189.14 441.77 184.90 C 446.12 180.67 443.76 182.27 446.65 178.43 C 449.55 174.59 447.86 172.63 449.00 175.29 C 450.15 177.96 448.54 181.10 449.52 185.10 C 450.49 189.10 449.85 184.12 451.44 185.29 C 453.03 186.47 450.40 185.45 453.49 188.04 C 456.57 190.63 456.82 188.24 459.15 191.76 C 461.49 195.29 457.39 197.96 459.33 196.86 C 461.28 195.76 461.54 191.37 464.01 189.02 C 466.48 186.67 461.23 187.61 465.52 190.98 C 469.81 194.35 470.94 196.35 474.73 197.45 C 478.52 198.55 474.18 194.67 475.00 193.73 C 475.81 192.78 475.28 193.61 476.77 195.10 C 478.26 196.59 474.05 195.73 478.72 197.45 C 483.39 199.18 483.06 203.41 488.46 199.41 C 493.85 195.41 489.86 189.57 492.21 187.45 C 494.56 185.33 490.48 192.24 494.33 194.12 C 498.18 196.00 497.19 194.20 501.84 192.16 C 506.49 190.12 498.91 194.59 505.95 189.02 C 512.99 183.45 513.27 178.24 519.45 178.24 C 525.62 178.24 519.03 184.55 521.39 189.02 C 523.75 193.49 522.33 189.33 525.34 189.41 C 528.36 189.49 525.83 190.08 528.93 189.22 C 532.03 188.35 530.84 188.67 533.08 187.25 C 535.32 185.84 529.92 188.12 534.52 185.69 C 539.13 183.25 540.03 185.41 544.60 181.18 C 549.16 176.94 543.17 178.78 545.93 175.10 C 548.70 171.41 548.99 172.75 551.50 171.96 C 554.01 171.18 551.76 173.84 552.21 173.14 C 552.67 172.43 550.17 166.51 552.64 170.20 C 555.11 173.88 554.55 176.63 558.39 182.35 C 562.23 188.08 558.40 187.33 562.24 184.51 C 566.09 181.69 564.11 175.22 568.01 175.29 C 571.91 175.37 566.54 181.41 572.01 184.71 C 577.48 188.00 572.45 187.92 581.68 183.53 C 590.92 179.14 582.85 177.65 595.09 173.73 C 607.32 169.80 604.40 174.43 612.27 173.73 C 620.13 173.02 612.39 171.02 614.75 171.96 C 617.12 172.90 616.02 179.61 618.18 176.08 C 620.34 172.55 617.79 165.18 620.16 163.14 C 622.54 161.10 620.06 166.59 624.11 170.98 C 628.16 175.37 627.09 169.10 630.29 174.12 C 633.48 179.14 626.08 180.31 632.11 183.53 C 638.15 186.75 632.10 187.25 645.38 182.16 C 658.65 177.06 621.57 178.94 665.29 170.78 C 709.01 162.63 692.51 166.63 754.68 161.76 C 816.86 156.90 791.95 163.57 820.73 158.63 C 849.51 153.69 823.49 152.47 826.63 149.41 C 829.77 146.35 824.69 148.39 828.58 150.98 C 832.47 153.57 833.19 150.47 836.35 155.88 C 839.51 161.29 835.66 164.12 836.49 164.51 C 837.32 164.90 836.93 158.20 838.42 156.86 C 839.92 155.53 839.44 156.31 840.23 161.18 C 841.02 166.04 837.30 165.33 840.40 169.02 C 843.51 172.71 840.23 166.08 848.00 170.39 C 855.76 174.71 855.02 173.06 859.82 179.80 C 864.62 186.55 859.93 184.27 860.00 187.25" fill="none" stroke="#3ecf8e" stroke-width="5"
        stroke-linecap="round" stroke-linejoin="round"
        stroke-dasharray="1738" stroke-dashoffset="1738"
        opacity="0.35" filter="url(#lineGlow)">
    <animate attributeName="stroke-dashoffset" dur="4.5s" repeatCount="indefinite"
      keyTimes="0;0.55;0.82;0.93;1"
      values="1738;0;0;1738;1738"
      keySplines="0.16 1 0.3 1;0 0 1 1;0.7 0 1 1;0 0 1 1"
      calcMode="spline"/>
  </path>

  <!-- Main animated wave line -->
  <path d="M 70.00 344.31 C 70.17 316.08 69.61 300.78 70.43 273.73 C 71.25 246.67 70.99 279.33 72.05 276.67 C 73.10 274.00 72.42 270.20 73.06 267.06 C 73.70 263.92 72.61 266.86 73.65 268.82 C 74.69 270.78 73.25 273.61 75.66 271.96 C 78.06 270.31 76.35 264.86 79.66 264.71 C 82.97 264.55 80.67 273.06 83.93 271.57 C 87.20 270.08 84.24 265.45 87.82 260.98 C 91.40 256.51 85.29 261.33 92.88 260.39 C 100.48 259.45 100.46 259.96 106.81 258.63 C 113.16 257.29 107.81 260.35 108.77 257.06 C 109.73 253.76 107.48 255.41 109.21 250.39 C 110.93 245.37 108.38 249.14 113.08 244.51 C 117.79 239.88 114.94 243.76 120.98 238.82 C 127.01 233.88 125.03 236.16 128.16 232.16 C 131.30 228.16 128.04 229.45 128.82 228.82 C 129.60 228.20 129.09 231.92 130.11 230.59 C 131.14 229.25 130.58 227.53 131.37 225.49 C 132.16 223.45 130.96 225.49 132.09 225.49 C 133.22 225.49 133.13 224.86 134.20 225.49 C 135.27 226.12 133.78 225.88 134.76 227.06 C 135.74 228.24 134.52 228.82 136.66 228.43 C 138.80 228.04 137.94 227.10 140.11 226.08 C 142.28 225.06 139.54 225.41 142.08 225.88 C 144.63 226.35 144.29 228.20 146.46 227.25 C 148.64 226.31 146.54 225.49 147.52 223.53 C 148.50 221.57 148.24 220.86 148.91 222.35 C 149.57 223.84 148.97 219.57 149.19 227.25 C 149.40 234.94 149.03 238.98 149.45 241.57 C 149.87 244.16 149.65 233.02 150.23 233.73 C 150.80 234.43 150.46 235.02 150.89 243.33 C 151.32 251.65 150.77 253.10 151.30 254.51 C 151.83 255.92 151.42 253.76 152.22 246.86 C 153.01 239.96 149.06 233.49 153.28 237.25 C 157.50 241.02 157.00 249.06 162.77 256.27 C 168.53 263.49 164.57 258.82 167.70 255.29 C 170.83 251.76 167.51 248.24 170.59 247.45 C 173.66 246.67 172.94 249.73 175.38 253.33 C 177.83 256.94 174.54 258.27 176.70 256.47 C 178.86 254.67 176.78 252.12 180.78 248.82 C 184.78 245.53 182.71 254.35 186.70 248.24 C 190.69 242.12 188.50 241.22 190.75 233.53 C 193.01 225.84 190.32 232.31 192.34 229.02 C 194.36 225.73 193.43 226.78 195.81 225.29 C 198.18 223.80 196.29 223.88 198.28 225.29 C 200.27 226.71 197.77 224.98 200.78 228.82 C 203.80 232.67 202.74 236.47 205.82 234.90 C 208.91 233.33 206.73 225.84 208.49 224.90 C 210.25 223.96 209.14 225.25 210.23 232.55 C 211.31 239.84 210.23 239.53 211.20 243.14 C 212.18 246.75 211.46 240.16 212.67 241.57 C 213.87 242.98 212.77 250.51 214.21 246.67 C 215.65 242.82 214.03 241.84 216.26 231.96 C 218.50 222.08 215.84 223.76 219.79 221.96 C 223.74 220.16 222.99 223.37 226.14 227.45 C 229.28 231.53 226.09 229.73 227.65 232.16 C 229.22 234.59 226.73 234.31 230.05 233.53 C 233.36 232.75 231.61 237.33 235.94 230.20 C 240.27 223.06 237.88 221.41 240.88 215.69 C 243.87 209.96 241.29 218.39 243.43 215.88 C 245.56 213.37 244.69 210.82 246.22 209.41 C 247.75 208.00 246.43 204.90 247.25 212.35 C 248.06 219.80 247.02 224.12 248.26 228.04 C 249.50 231.96 247.32 228.98 250.34 222.16 C 253.36 215.33 253.14 216.55 255.81 210.98 C 258.49 205.41 255.00 209.49 257.03 208.24 C 259.05 206.98 256.23 208.47 260.88 207.84 C 265.54 207.22 247.94 207.29 268.66 206.67 C 289.39 206.04 290.13 207.06 312.70 206.27 C 335.27 205.49 319.00 203.22 325.08 204.71 C 331.16 206.20 323.26 208.75 327.90 210.00 C 332.54 211.25 330.93 209.02 336.68 207.84 C 342.44 206.67 339.58 208.63 342.29 207.06 C 344.99 205.49 337.96 200.78 343.45 203.92 C 348.93 207.06 350.09 210.43 355.99 214.90 C 361.89 219.37 354.31 218.16 358.20 215.10 C 362.09 212.04 361.86 212.67 365.72 207.25 C 369.58 201.84 366.14 200.71 367.84 201.57 C 369.54 202.43 367.65 208.24 369.97 209.41 C 372.29 210.59 370.64 207.57 373.65 204.51 C 376.66 201.45 375.12 202.86 377.50 201.76 C 379.87 200.67 377.35 201.84 379.59 201.76 C 381.82 201.69 380.00 202.82 383.08 201.57 C 386.16 200.31 384.89 199.96 387.29 198.63 C 389.69 197.29 387.23 201.14 389.08 198.24 C 390.93 195.33 389.64 194.98 391.91 191.37 C 394.18 187.76 391.18 190.78 394.77 189.22 C 398.35 187.65 396.11 187.69 400.88 187.45 C 405.64 187.22 402.76 187.69 406.69 188.63 C 410.62 189.57 407.58 188.24 410.71 189.80 C 413.83 191.37 410.33 192.47 414.51 192.55 C 418.69 192.63 417.26 190.24 421.15 190.00 C 425.04 189.76 418.39 192.35 424.24 191.96 C 430.09 191.57 428.76 191.84 435.77 189.02 C 442.78 186.20 437.42 189.14 441.77 184.90 C 446.12 180.67 443.76 182.27 446.65 178.43 C 449.55 174.59 447.86 172.63 449.00 175.29 C 450.15 177.96 448.54 181.10 449.52 185.10 C 450.49 189.10 449.85 184.12 451.44 185.29 C 453.03 186.47 450.40 185.45 453.49 188.04 C 456.57 190.63 456.82 188.24 459.15 191.76 C 461.49 195.29 457.39 197.96 459.33 196.86 C 461.28 195.76 461.54 191.37 464.01 189.02 C 466.48 186.67 461.23 187.61 465.52 190.98 C 469.81 194.35 470.94 196.35 474.73 197.45 C 478.52 198.55 474.18 194.67 475.00 193.73 C 475.81 192.78 475.28 193.61 476.77 195.10 C 478.26 196.59 474.05 195.73 478.72 197.45 C 483.39 199.18 483.06 203.41 488.46 199.41 C 493.85 195.41 489.86 189.57 492.21 187.45 C 494.56 185.33 490.48 192.24 494.33 194.12 C 498.18 196.00 497.19 194.20 501.84 192.16 C 506.49 190.12 498.91 194.59 505.95 189.02 C 512.99 183.45 513.27 178.24 519.45 178.24 C 525.62 178.24 519.03 184.55 521.39 189.02 C 523.75 193.49 522.33 189.33 525.34 189.41 C 528.36 189.49 525.83 190.08 528.93 189.22 C 532.03 188.35 530.84 188.67 533.08 187.25 C 535.32 185.84 529.92 188.12 534.52 185.69 C 539.13 183.25 540.03 185.41 544.60 181.18 C 549.16 176.94 543.17 178.78 545.93 175.10 C 548.70 171.41 548.99 172.75 551.50 171.96 C 554.01 171.18 551.76 173.84 552.21 173.14 C 552.67 172.43 550.17 166.51 552.64 170.20 C 555.11 173.88 554.55 176.63 558.39 182.35 C 562.23 188.08 558.40 187.33 562.24 184.51 C 566.09 181.69 564.11 175.22 568.01 175.29 C 571.91 175.37 566.54 181.41 572.01 184.71 C 577.48 188.00 572.45 187.92 581.68 183.53 C 590.92 179.14 582.85 177.65 595.09 173.73 C 607.32 169.80 604.40 174.43 612.27 173.73 C 620.13 173.02 612.39 171.02 614.75 171.96 C 617.12 172.90 616.02 179.61 618.18 176.08 C 620.34 172.55 617.79 165.18 620.16 163.14 C 622.54 161.10 620.06 166.59 624.11 170.98 C 628.16 175.37 627.09 169.10 630.29 174.12 C 633.48 179.14 626.08 180.31 632.11 183.53 C 638.15 186.75 632.10 187.25 645.38 182.16 C 658.65 177.06 621.57 178.94 665.29 170.78 C 709.01 162.63 692.51 166.63 754.68 161.76 C 816.86 156.90 791.95 163.57 820.73 158.63 C 849.51 153.69 823.49 152.47 826.63 149.41 C 829.77 146.35 824.69 148.39 828.58 150.98 C 832.47 153.57 833.19 150.47 836.35 155.88 C 839.51 161.29 835.66 164.12 836.49 164.51 C 837.32 164.90 836.93 158.20 838.42 156.86 C 839.92 155.53 839.44 156.31 840.23 161.18 C 841.02 166.04 837.30 165.33 840.40 169.02 C 843.51 172.71 840.23 166.08 848.00 170.39 C 855.76 174.71 855.02 173.06 859.82 179.80 C 864.62 186.55 859.93 184.27 860.00 187.25" fill="none" stroke="url(#lineGrad)" stroke-width="2.8"
        stroke-linecap="round" stroke-linejoin="round"
        stroke-dasharray="1738" stroke-dashoffset="1738">
    <animate attributeName="stroke-dashoffset" dur="4.5s" repeatCount="indefinite"
      keyTimes="0;0.55;0.82;0.93;1"
      values="1738;0;0;1738;1738"
      keySplines="0.16 1 0.3 1;0 0 1 1;0.7 0 1 1;0 0 1 1"
      calcMode="spline"/>
  </path>

  <!-- ── START DOT ── -->
  <circle cx="70.0" cy="344.3" r="4" fill="#6e7681" stroke="#0d1117" stroke-width="2"/>
  <rect x="77.0" y="333.3" width="64" height="20" rx="5"
        fill="#1c2128" stroke="#30363d" stroke-width="0.8"/>
  <text x="109.0" y="347.3" text-anchor="middle"
        fill="#8b949e" font-family="'Segoe UI',sans-serif" font-size="10" font-weight="700">Start: 238</text>

  <!-- ── PEAK BADGE (animated) ── -->
  <g>
    <animate attributeName="opacity" dur="4.5s" repeatCount="indefinite"
      keyTimes="0;0.38;0.52;0.82;0.93;1"
      values="0;0;1;1;0;0"/>
    <!-- leader line -->
    <line x1="813.6" y1="135.0" x2="826.6" y2="149.4"
          stroke="#d29922" stroke-width="1" stroke-dasharray="3 4" opacity="0.7"/>
    <!-- glow ring -->
    <circle cx="826.6" cy="149.4" r="11" fill="#d29922" fill-opacity="0.15" filter="url(#peakGlow)"/>
    <!-- outer ring -->
    <circle cx="826.6" cy="149.4" r="7.5" fill="none" stroke="#d29922" stroke-width="1.5" opacity="0.6"/>
    <!-- core dot -->
    <circle cx="826.6" cy="149.4" r="5" fill="#d29922" stroke="#0d1117" stroke-width="2" filter="url(#glow)"/>
    <!-- badge box -->
    <rect x="701.6" y="122.0" width="112" height="26" rx="7"
          fill="#1a1700" stroke="#d29922" stroke-width="1.5"/>
    <text x="757.6" y="139.0" text-anchor="middle"
          fill="#d29922" font-family="'Segoe UI',sans-serif" font-size="11.5" font-weight="800">Peak 1232 &#9813;</text>
  </g>

  <!-- ── CURRENT BADGE (animated) ── -->
  <g>
    <animate attributeName="opacity" dur="4.5s" repeatCount="indefinite"
      keyTimes="0;0.44;0.57;0.82;0.93;1"
      values="0;0;1;1;0;0"/>
    <!-- leader line -->
    <line x1="845.0" y1="240.3" x2="860.0" y2="187.3"
          stroke="#3fb950" stroke-width="1" stroke-dasharray="3 4" opacity="0.7"/>
    <!-- pulse ring -->
    <circle cx="860.0" cy="187.3" r="10" fill="#3fb950" fill-opacity="0.12" filter="url(#glow)">
      <animate attributeName="r" dur="1.8s" repeatCount="indefinite" values="6;14;6"/>
      <animate attributeName="opacity" dur="1.8s" repeatCount="indefinite" values="0.5;0;0.5"/>
    </circle>
    <!-- core dot -->
    <circle cx="860.0" cy="187.3" r="5.5" fill="#3fb950" stroke="#0d1117" stroke-width="2.5" filter="url(#glow)"/>
    <!-- badge box -->
    <rect x="745.0" y="227.3" width="100" height="26" rx="7"
          fill="#091e13" stroke="#238636" stroke-width="1.5"/>
    <text x="795.0" y="244.3" text-anchor="middle"
          fill="#3fb950" font-family="'Segoe UI',sans-serif" font-size="11.5" font-weight="800">Now: 1039</text>
  </g>

</svg>