<svg xmlns="http://www.w3.org/2000/svg" viewBox="0 0 900 420" width="100%" height="auto" style="max-width:900px">
  <defs>

    <!-- Chess tile background pattern -->
    <pattern id="chessPattern" x="0" y="0" width="44" height="44" patternUnits="userSpaceOnUse">
      <rect width="44" height="44" fill="transparent"/>
      <rect width="22" height="22" fill="#ffffff" fill-opacity="0.018"/>
      <rect x="22" y="22" width="22" height="22" fill="#ffffff" fill-opacity="0.018"/>
    </pattern>

    <!-- Chart area fill gradient -->
    <linearGradient id="fillGrad" x1="0" y1="0" x2="0" y2="1">
      <stop offset="0%"   stop-color="#00d26a" stop-opacity="0.35"/>
      <stop offset="40%"  stop-color="#81b64c" stop-opacity="0.18"/>
      <stop offset="100%" stop-color="#0d1117" stop-opacity="0"/>
    </linearGradient>

    <!-- Line stroke gradient -->
    <linearGradient id="lineGrad" x1="0" y1="0" x2="1" y2="0">
      <stop offset="0%"   stop-color="#3ecf8e"/>
      <stop offset="35%"  stop-color="#81b64c"/>
      <stop offset="70%"  stop-color="#a8d660"/>
      <stop offset="100%" stop-color="#58f0a0"/>
    </linearGradient>

    <!-- Background card gradient -->
    <linearGradient id="bgGrad" x1="0" y1="0" x2="0.3" y2="1">
      <stop offset="0%"   stop-color="#161b22"/>
      <stop offset="100%" stop-color="#0d1117"/>
    </linearGradient>

    <!-- Glow filter for peak/curr dots -->
    <filter id="glow" x="-50%" y="-50%" width="200%" height="200%">
      <feGaussianBlur stdDeviation="4" result="b"/>
      <feMerge><feMergeNode in="b"/><feMergeNode in="SourceGraphic"/></feMerge>
    </filter>

    <!-- Stronger glow for peak -->
    <filter id="peakGlow" x="-80%" y="-80%" width="260%" height="260%">
      <feGaussianBlur stdDeviation="6" result="b"/>
      <feMerge><feMergeNode in="b"/><feMergeNode in="SourceGraphic"/></feMerge>
    </filter>

    <!-- Soft shadow for card -->
    <filter id="shadow" x="-4%" y="-4%" width="108%" height="116%">
      <feDropShadow dx="0" dy="8" stdDeviation="14" flood-color="#000" flood-opacity="0.55"/>
    </filter>

    <!-- Line glow -->
    <filter id="lineGlow" x="-5%" y="-50%" width="110%" height="200%">
      <feGaussianBlur stdDeviation="5" result="b"/>
      <feMerge><feMergeNode in="b"/><feMergeNode in="SourceGraphic"/></feMerge>
    </filter>

  </defs>

  <!-- ── CARD BACKGROUND ── -->
  <rect width="900" height="420" rx="16" fill="url(#bgGrad)" stroke="#30363d" stroke-width="1.2" filter="url(#shadow)"/>

  <!-- Chess tile texture overlay -->
  <rect width="900" height="420" rx="16" fill="url(#chessPattern)"/>

  <!-- Accent top border strip -->
  <rect x="0" y="0" width="900" height="3" rx="2" fill="url(#lineGrad)" opacity="0.9"/>

  <!-- ── HEADER ── -->
  <!-- Chess icon circle -->
  <circle cx="34" cy="46" r="18" fill="#1c2128" stroke="#30363d" stroke-width="1.2"/>
  <text x="34" y="52" text-anchor="middle" font-size="18" fill="white">♟</text>

  <!-- Title text -->
  <text x="62" y="38" font-family="'Segoe UI',system-ui,-apple-system,sans-serif"
        font-size="18" font-weight="700" fill="#f0f6fc" letter-spacing="-0.3">Chess.com Rating Progression</text>
  <text x="62" y="57" font-family="'Segoe UI',system-ui,sans-serif"
        font-size="12" fill="#6e7681">Rapid · 2,322 games · @ashumm · Aug 2025 – Sep 2026</text>

  <!-- ── KPI BADGE ROW ── -->
  <!-- Current Rating -->
  <g transform="translate(470, 14)">
    <rect width="96" height="56" rx="10" fill="#1c2128" stroke="#238636" stroke-width="1.2"/>
    <text x="48" y="20" text-anchor="middle" font-family="'Segoe UI',sans-serif"
          font-size="9" font-weight="700" fill="#3fb950" letter-spacing="0.8">CURRENT</text>
    <text x="48" y="42" text-anchor="middle" font-family="'Segoe UI',sans-serif"
          font-size="22" font-weight="900" fill="#3fb950">1141</text>
  </g>

  <!-- Peak Rating -->
  <g transform="translate(576, 14)">
    <rect width="96" height="56" rx="10" fill="#1c2128" stroke="#9e6a03" stroke-width="1.2"/>
    <text x="48" y="20" text-anchor="middle" font-family="'Segoe UI',sans-serif"
          font-size="9" font-weight="700" fill="#d29922" letter-spacing="0.8">PEAK &#9813;</text>
    <text x="48" y="42" text-anchor="middle" font-family="'Segoe UI',sans-serif"
          font-size="22" font-weight="900" fill="#d29922">1232</text>
  </g>

  <!-- Total Gain -->
  <g transform="translate(682, 14)">
    <rect width="96" height="56" rx="10" fill="#1c2128" stroke="#1f6feb" stroke-width="1.2"/>
    <text x="48" y="20" text-anchor="middle" font-family="'Segoe UI',sans-serif"
          font-size="9" font-weight="700" fill="#58a6ff" letter-spacing="0.8">GAIN &#128200;</text>
    <text x="48" y="42" text-anchor="middle" font-family="'Segoe UI',sans-serif"
          font-size="22" font-weight="900" fill="#58a6ff">+903</text>
  </g>

  <!-- Games -->
  <g transform="translate(788, 14)">
    <rect width="96" height="56" rx="10" fill="#1c2128" stroke="#6e40c9" stroke-width="1.2"/>
    <text x="48" y="20" text-anchor="middle" font-family="'Segoe UI',sans-serif"
          font-size="9" font-weight="700" fill="#bc8cff" letter-spacing="0.8">GAMES</text>
    <text x="48" y="42" text-anchor="middle" font-family="'Segoe UI',sans-serif"
          font-size="22" font-weight="900" fill="#bc8cff">2,322</text>
  </g>

  <!-- ── GRID ── -->
  
    <line x1="70" y1="360.0" x2="860" y2="360.0" stroke="#ffffff" stroke-width="0.6" stroke-dasharray="4 6" stroke-opacity="0.08" />
    <text x="60" y="364.0" text-anchor="end" fill="#6e7681" font-size="11" font-family="'Segoe UI',system-ui,sans-serif" font-weight="600">158</text>
    <line x1="70" y1="312.2" x2="860" y2="312.2" stroke="#ffffff" stroke-width="0.6" stroke-dasharray="4 6" stroke-opacity="0.08" />
    <text x="60" y="316.2" text-anchor="end" fill="#6e7681" font-size="11" font-family="'Segoe UI',system-ui,sans-serif" font-weight="600">402</text>
    <line x1="70" y1="264.1" x2="860" y2="264.1" stroke="#ffffff" stroke-width="0.6" stroke-dasharray="4 6" stroke-opacity="0.08" />
    <text x="60" y="268.1" text-anchor="end" fill="#6e7681" font-size="11" font-family="'Segoe UI',system-ui,sans-serif" font-weight="600">647</text>
    <line x1="70" y1="216.1" x2="860" y2="216.1" stroke="#ffffff" stroke-width="0.6" stroke-dasharray="4 6" stroke-opacity="0.08" />
    <text x="60" y="220.1" text-anchor="end" fill="#6e7681" font-size="11" font-family="'Segoe UI',system-ui,sans-serif" font-weight="600">892</text>
    <line x1="70" y1="168.0" x2="860" y2="168.0" stroke="#ffffff" stroke-width="0.6" stroke-dasharray="4 6" stroke-opacity="0.08" />
    <text x="60" y="172.0" text-anchor="end" fill="#6e7681" font-size="11" font-family="'Segoe UI',system-ui,sans-serif" font-weight="600">1137</text>
    <line x1="70" y1="120.0" x2="860" y2="120.0" stroke="#ffffff" stroke-width="0.6" stroke-dasharray="4 6" stroke-opacity="0.08" />
    <text x="60" y="124.0" text-anchor="end" fill="#6e7681" font-size="11" font-family="'Segoe UI',system-ui,sans-serif" font-weight="600">1382</text>
  
    <line x1="70.0" y1="120" x2="70.0" y2="360" stroke="#ffffff" stroke-width="0.5" stroke-opacity="0.06" />
    <text x="70.0" y="382.0" text-anchor="middle" fill="#6e7681" font-size="10" font-family="'Segoe UI',system-ui,sans-serif" font-weight="600">Aug'25</text>
    <line x1="201.7" y1="120" x2="201.7" y2="360" stroke="#ffffff" stroke-width="0.5" stroke-opacity="0.06" />
    <text x="201.7" y="382.0" text-anchor="middle" fill="#6e7681" font-size="10" font-family="'Segoe UI',system-ui,sans-serif" font-weight="600">Oct'25</text>
    <line x1="333.3" y1="120" x2="333.3" y2="360" stroke="#ffffff" stroke-width="0.5" stroke-opacity="0.06" />
    <text x="333.3" y="382.0" text-anchor="middle" fill="#6e7681" font-size="10" font-family="'Segoe UI',system-ui,sans-serif" font-weight="600">Jan'26</text>
    <line x1="465.0" y1="120" x2="465.0" y2="360" stroke="#ffffff" stroke-width="0.5" stroke-opacity="0.06" />
    <text x="465.0" y="382.0" text-anchor="middle" fill="#6e7681" font-size="10" font-family="'Segoe UI',system-ui,sans-serif" font-weight="600">Mar'26</text>
    <line x1="596.7" y1="120" x2="596.7" y2="360" stroke="#ffffff" stroke-width="0.5" stroke-opacity="0.06" />
    <text x="596.7" y="382.0" text-anchor="middle" fill="#6e7681" font-size="10" font-family="'Segoe UI',system-ui,sans-serif" font-weight="600">May'26</text>
    <line x1="728.3" y1="120" x2="728.3" y2="360" stroke="#ffffff" stroke-width="0.5" stroke-opacity="0.06" />
    <text x="728.3" y="382.0" text-anchor="middle" fill="#6e7681" font-size="10" font-family="'Segoe UI',system-ui,sans-serif" font-weight="600">Jul'26</text>
    <line x1="860.0" y1="120" x2="860.0" y2="360" stroke="#ffffff" stroke-width="0.5" stroke-opacity="0.06" />
    <text x="860.0" y="382.0" text-anchor="middle" fill="#6e7681" font-size="10" font-family="'Segoe UI',system-ui,sans-serif" font-weight="600">Sep'26</text>

  <!-- Baseline -->
  <line x1="70" y1="360" x2="860" y2="360" stroke="#30363d" stroke-width="1.5"/>
  <line x1="70" y1="120" x2="70" y2="360" stroke="#30363d" stroke-width="1"/>

  <!-- ── CHART ── -->

  <!-- Ghost/static trace (always visible, very faint) -->
  <path d="M 70.00 344.31 C 70.17 316.08 69.61 300.24 70.43 273.73 C 71.26 247.22 71.26 280.08 72.05 278.04 C 72.85 276.00 71.78 273.02 72.43 268.63 C 73.08 264.24 72.45 265.10 73.69 267.06 C 74.92 269.02 73.08 274.47 75.51 273.53 C 77.95 272.59 76.33 266.12 79.78 264.71 C 83.22 263.29 80.97 271.65 84.13 270.00 C 87.29 268.35 84.04 264.43 87.68 260.59 C 91.31 256.75 86.16 259.76 93.22 260.39 C 100.28 261.02 98.88 264.20 105.33 262.16 C 111.77 260.12 107.60 258.04 109.33 255.29 C 111.07 252.55 107.92 259.61 109.66 255.29 C 111.41 250.98 108.88 251.02 113.70 244.51 C 118.52 238.00 116.34 243.25 121.72 239.02 C 127.10 234.78 123.97 239.18 127.15 233.92 C 130.34 228.67 128.60 226.59 129.68 225.88 C 130.77 225.18 129.06 233.49 129.87 232.16 C 130.67 230.82 130.44 225.84 131.70 222.55 C 132.97 219.25 132.26 224.00 133.03 223.92 C 133.80 223.84 132.56 220.47 133.62 222.35 C 134.68 224.24 134.13 226.20 135.68 228.63 C 137.24 231.06 135.32 230.71 137.51 228.43 C 139.70 226.16 139.06 222.08 141.15 222.94 C 143.25 223.80 140.18 227.61 142.75 230.59 C 145.32 233.57 145.25 232.51 147.58 230.39 C 149.91 228.27 147.96 227.33 148.57 225.29 C 149.17 223.25 148.42 223.88 149.09 225.29 C 149.76 226.71 149.66 222.39 150.23 228.82 C 150.81 235.25 150.25 236.98 150.53 241.37 C 150.80 245.76 150.51 240.20 150.93 239.80 C 151.34 239.41 150.99 237.10 151.57 240.39 C 152.15 243.69 151.94 244.82 152.38 248.04 C 152.83 251.25 151.91 252.67 152.68 248.43 C 153.45 244.20 153.03 237.45 154.31 237.45 C 155.59 237.45 151.04 241.84 155.88 248.43 C 160.73 255.02 160.63 252.59 166.42 253.92 C 172.22 255.25 167.99 252.47 170.37 251.76 C 172.75 251.06 169.33 251.61 172.37 252.16 C 175.41 252.71 175.34 252.59 177.97 253.14 C 180.61 253.69 176.94 255.33 178.96 253.53 C 180.98 251.73 178.18 252.86 183.02 248.63 C 187.87 244.39 187.06 252.20 191.06 242.94 C 195.07 233.69 191.24 229.88 193.03 225.49 C 194.82 221.10 193.43 231.41 195.54 231.96 C 197.66 232.51 195.93 228.27 198.32 226.86 C 200.71 225.45 198.82 227.10 201.53 228.43 C 204.24 229.76 202.50 227.14 205.09 230.20 C 207.68 233.25 205.75 238.12 207.99 236.08 C 210.24 234.04 208.90 224.47 210.70 225.10 C 212.50 225.73 210.87 232.31 212.49 237.65 C 214.11 242.98 213.78 234.98 214.74 238.43 C 215.71 241.88 213.79 245.49 214.91 246.27 C 216.02 247.06 215.45 246.75 217.53 240.39 C 219.60 234.04 218.24 234.86 220.10 230.39 C 221.96 225.92 218.77 229.14 222.17 229.22 C 225.57 229.29 224.94 230.04 228.60 230.59 C 232.25 231.14 229.73 229.41 231.32 230.59 C 232.91 231.76 229.42 236.27 232.57 233.53 C 235.72 230.78 234.55 232.12 239.18 223.73 C 243.81 215.33 240.87 216.94 244.15 212.55 C 247.43 208.16 245.41 214.63 247.38 212.75 C 249.35 210.86 248.02 206.75 249.08 207.84 C 250.13 208.94 249.07 209.29 250.01 215.49 C 250.96 221.69 250.09 221.29 251.45 223.33 C 252.80 225.37 250.30 226.16 253.39 220.59 C 256.48 215.02 256.55 213.73 259.17 209.41 C 261.78 205.10 258.06 209.18 259.93 209.80 C 261.80 210.43 246.52 213.02 263.84 210.98 C 281.17 208.94 281.99 207.45 303.26 204.71 C 324.52 201.96 306.71 202.94 317.01 204.12 C 327.32 205.29 323.06 205.92 329.02 207.65 C 334.98 209.37 327.19 207.10 331.91 208.43 C 336.63 209.76 334.97 212.16 340.82 210.98 C 346.66 209.80 340.23 208.31 346.52 205.49 C 352.80 202.67 350.98 199.53 356.53 203.92 C 362.09 208.31 357.96 212.00 360.40 216.47 C 362.84 220.94 358.67 218.16 362.63 215.10 C 366.60 212.04 366.40 214.24 370.31 208.82 C 374.23 203.41 370.72 201.33 372.43 201.57 C 374.14 201.80 372.23 208.24 374.59 209.41 C 376.94 210.59 375.26 207.57 378.32 204.51 C 381.38 201.45 379.82 203.49 382.23 201.76 C 384.64 200.04 382.07 200.27 384.34 200.20 C 386.60 200.12 384.90 202.90 387.90 201.57 C 390.90 200.24 389.42 197.57 391.85 196.86 C 394.28 196.16 391.97 201.37 393.97 199.80 C 395.98 198.24 394.54 196.55 396.86 192.94 C 399.17 189.33 397.00 191.73 399.76 190.78 C 402.52 189.84 398.92 192.08 403.76 190.59 C 408.60 189.10 407.00 188.63 411.86 187.06 C 416.72 185.49 412.74 185.73 415.91 186.67 C 419.08 187.61 415.54 188.08 419.79 189.41 C 424.04 190.75 422.58 188.98 426.53 190.00 C 430.49 191.02 426.93 191.73 429.67 191.96 C 432.41 192.20 426.28 192.24 433.39 190.59 C 440.50 188.94 440.26 192.08 447.45 187.84 C 454.64 183.61 448.42 185.65 451.37 180.00 C 454.32 174.35 453.24 172.71 454.82 173.73 C 456.40 174.75 454.33 178.55 455.32 182.55 C 456.30 186.55 455.68 184.04 457.29 183.73 C 458.91 183.41 456.23 178.55 459.35 181.76 C 462.47 184.98 462.72 185.73 465.09 191.76 C 467.46 197.80 463.66 196.71 465.27 196.86 C 466.89 197.02 466.71 193.57 469.13 192.16 C 471.55 190.75 467.37 191.84 471.32 193.33 C 475.28 194.82 475.08 195.10 479.02 195.88 C 482.95 196.67 479.84 194.98 481.16 195.29 C 482.49 195.61 480.81 196.98 482.33 196.67 C 483.84 196.35 479.95 193.41 484.95 194.51 C 489.95 195.61 490.05 199.80 494.83 199.41 C 499.60 199.02 495.30 196.35 496.89 193.53 C 498.48 190.71 495.80 191.49 498.80 192.35 C 501.79 193.22 499.65 198.90 504.38 195.69 C 509.10 192.47 505.70 189.96 510.60 184.31 C 515.51 178.67 510.31 180.31 516.65 181.57 C 522.98 182.82 521.74 182.43 526.45 187.45 C 531.16 192.47 524.96 192.71 528.42 194.12 C 531.88 195.53 531.96 193.73 535.10 190.98 C 538.24 188.24 534.20 188.75 536.26 187.25 C 538.33 185.76 534.78 189.06 540.26 187.25 C 545.74 185.45 545.23 185.18 549.97 182.75 C 554.70 180.31 550.49 184.16 552.09 181.18 C 553.70 178.20 551.05 179.69 553.99 175.29 C 556.92 170.90 557.03 172.24 559.43 170.20 C 561.84 168.16 559.72 168.31 560.00 170.20 C 560.28 172.08 557.11 170.35 560.14 174.90 C 563.16 179.45 562.89 180.71 567.55 181.57 C 572.22 182.43 567.76 178.24 571.80 177.06 C 575.84 175.88 572.22 176.67 577.66 178.63 C 583.10 180.59 578.28 181.33 585.40 181.96 C 592.52 182.59 586.18 184.12 595.46 180.20 C 604.73 176.27 598.32 175.37 608.59 172.16 C 618.86 168.94 614.73 171.84 621.13 172.16 C 627.53 172.47 622.24 173.33 624.59 172.94 C 626.94 172.55 624.45 175.10 627.00 171.18 C 629.55 167.25 628.68 162.59 630.96 163.14 C 633.25 163.69 629.51 167.53 632.71 172.55 C 635.91 177.57 635.72 171.37 638.96 175.69 C 642.21 180.00 634.60 181.45 640.82 183.33 C 647.04 185.22 630.12 186.04 654.51 180.39 C 678.91 174.75 631.45 178.08 701.81 169.22 C 772.16 160.35 777.39 161.76 830.40 158.24 C 883.42 154.71 831.19 163.92 834.33 160.39 C 837.48 156.86 834.25 151.84 838.27 149.41 C 842.29 146.98 840.41 151.02 844.37 154.31 C 848.33 157.61 846.59 153.57 848.16 157.65 C 849.74 161.73 847.47 164.27 848.31 164.51 C 849.15 164.75 848.75 158.94 850.27 158.24 C 851.80 157.53 851.31 159.06 852.12 162.75 C 852.94 166.43 849.15 165.65 852.30 167.45 C 855.45 169.25 856.92 167.33 860.00 167.25" fill="none" stroke="#3fb950" stroke-width="1.2"
        stroke-linecap="round" stroke-linejoin="round" opacity="0.15"/>

  <!-- Animated area fill -->
  <path d="M 70.00 344.31 C 70.17 316.08 69.61 300.24 70.43 273.73 C 71.26 247.22 71.26 280.08 72.05 278.04 C 72.85 276.00 71.78 273.02 72.43 268.63 C 73.08 264.24 72.45 265.10 73.69 267.06 C 74.92 269.02 73.08 274.47 75.51 273.53 C 77.95 272.59 76.33 266.12 79.78 264.71 C 83.22 263.29 80.97 271.65 84.13 270.00 C 87.29 268.35 84.04 264.43 87.68 260.59 C 91.31 256.75 86.16 259.76 93.22 260.39 C 100.28 261.02 98.88 264.20 105.33 262.16 C 111.77 260.12 107.60 258.04 109.33 255.29 C 111.07 252.55 107.92 259.61 109.66 255.29 C 111.41 250.98 108.88 251.02 113.70 244.51 C 118.52 238.00 116.34 243.25 121.72 239.02 C 127.10 234.78 123.97 239.18 127.15 233.92 C 130.34 228.67 128.60 226.59 129.68 225.88 C 130.77 225.18 129.06 233.49 129.87 232.16 C 130.67 230.82 130.44 225.84 131.70 222.55 C 132.97 219.25 132.26 224.00 133.03 223.92 C 133.80 223.84 132.56 220.47 133.62 222.35 C 134.68 224.24 134.13 226.20 135.68 228.63 C 137.24 231.06 135.32 230.71 137.51 228.43 C 139.70 226.16 139.06 222.08 141.15 222.94 C 143.25 223.80 140.18 227.61 142.75 230.59 C 145.32 233.57 145.25 232.51 147.58 230.39 C 149.91 228.27 147.96 227.33 148.57 225.29 C 149.17 223.25 148.42 223.88 149.09 225.29 C 149.76 226.71 149.66 222.39 150.23 228.82 C 150.81 235.25 150.25 236.98 150.53 241.37 C 150.80 245.76 150.51 240.20 150.93 239.80 C 151.34 239.41 150.99 237.10 151.57 240.39 C 152.15 243.69 151.94 244.82 152.38 248.04 C 152.83 251.25 151.91 252.67 152.68 248.43 C 153.45 244.20 153.03 237.45 154.31 237.45 C 155.59 237.45 151.04 241.84 155.88 248.43 C 160.73 255.02 160.63 252.59 166.42 253.92 C 172.22 255.25 167.99 252.47 170.37 251.76 C 172.75 251.06 169.33 251.61 172.37 252.16 C 175.41 252.71 175.34 252.59 177.97 253.14 C 180.61 253.69 176.94 255.33 178.96 253.53 C 180.98 251.73 178.18 252.86 183.02 248.63 C 187.87 244.39 187.06 252.20 191.06 242.94 C 195.07 233.69 191.24 229.88 193.03 225.49 C 194.82 221.10 193.43 231.41 195.54 231.96 C 197.66 232.51 195.93 228.27 198.32 226.86 C 200.71 225.45 198.82 227.10 201.53 228.43 C 204.24 229.76 202.50 227.14 205.09 230.20 C 207.68 233.25 205.75 238.12 207.99 236.08 C 210.24 234.04 208.90 224.47 210.70 225.10 C 212.50 225.73 210.87 232.31 212.49 237.65 C 214.11 242.98 213.78 234.98 214.74 238.43 C 215.71 241.88 213.79 245.49 214.91 246.27 C 216.02 247.06 215.45 246.75 217.53 240.39 C 219.60 234.04 218.24 234.86 220.10 230.39 C 221.96 225.92 218.77 229.14 222.17 229.22 C 225.57 229.29 224.94 230.04 228.60 230.59 C 232.25 231.14 229.73 229.41 231.32 230.59 C 232.91 231.76 229.42 236.27 232.57 233.53 C 235.72 230.78 234.55 232.12 239.18 223.73 C 243.81 215.33 240.87 216.94 244.15 212.55 C 247.43 208.16 245.41 214.63 247.38 212.75 C 249.35 210.86 248.02 206.75 249.08 207.84 C 250.13 208.94 249.07 209.29 250.01 215.49 C 250.96 221.69 250.09 221.29 251.45 223.33 C 252.80 225.37 250.30 226.16 253.39 220.59 C 256.48 215.02 256.55 213.73 259.17 209.41 C 261.78 205.10 258.06 209.18 259.93 209.80 C 261.80 210.43 246.52 213.02 263.84 210.98 C 281.17 208.94 281.99 207.45 303.26 204.71 C 324.52 201.96 306.71 202.94 317.01 204.12 C 327.32 205.29 323.06 205.92 329.02 207.65 C 334.98 209.37 327.19 207.10 331.91 208.43 C 336.63 209.76 334.97 212.16 340.82 210.98 C 346.66 209.80 340.23 208.31 346.52 205.49 C 352.80 202.67 350.98 199.53 356.53 203.92 C 362.09 208.31 357.96 212.00 360.40 216.47 C 362.84 220.94 358.67 218.16 362.63 215.10 C 366.60 212.04 366.40 214.24 370.31 208.82 C 374.23 203.41 370.72 201.33 372.43 201.57 C 374.14 201.80 372.23 208.24 374.59 209.41 C 376.94 210.59 375.26 207.57 378.32 204.51 C 381.38 201.45 379.82 203.49 382.23 201.76 C 384.64 200.04 382.07 200.27 384.34 200.20 C 386.60 200.12 384.90 202.90 387.90 201.57 C 390.90 200.24 389.42 197.57 391.85 196.86 C 394.28 196.16 391.97 201.37 393.97 199.80 C 395.98 198.24 394.54 196.55 396.86 192.94 C 399.17 189.33 397.00 191.73 399.76 190.78 C 402.52 189.84 398.92 192.08 403.76 190.59 C 408.60 189.10 407.00 188.63 411.86 187.06 C 416.72 185.49 412.74 185.73 415.91 186.67 C 419.08 187.61 415.54 188.08 419.79 189.41 C 424.04 190.75 422.58 188.98 426.53 190.00 C 430.49 191.02 426.93 191.73 429.67 191.96 C 432.41 192.20 426.28 192.24 433.39 190.59 C 440.50 188.94 440.26 192.08 447.45 187.84 C 454.64 183.61 448.42 185.65 451.37 180.00 C 454.32 174.35 453.24 172.71 454.82 173.73 C 456.40 174.75 454.33 178.55 455.32 182.55 C 456.30 186.55 455.68 184.04 457.29 183.73 C 458.91 183.41 456.23 178.55 459.35 181.76 C 462.47 184.98 462.72 185.73 465.09 191.76 C 467.46 197.80 463.66 196.71 465.27 196.86 C 466.89 197.02 466.71 193.57 469.13 192.16 C 471.55 190.75 467.37 191.84 471.32 193.33 C 475.28 194.82 475.08 195.10 479.02 195.88 C 482.95 196.67 479.84 194.98 481.16 195.29 C 482.49 195.61 480.81 196.98 482.33 196.67 C 483.84 196.35 479.95 193.41 484.95 194.51 C 489.95 195.61 490.05 199.80 494.83 199.41 C 499.60 199.02 495.30 196.35 496.89 193.53 C 498.48 190.71 495.80 191.49 498.80 192.35 C 501.79 193.22 499.65 198.90 504.38 195.69 C 509.10 192.47 505.70 189.96 510.60 184.31 C 515.51 178.67 510.31 180.31 516.65 181.57 C 522.98 182.82 521.74 182.43 526.45 187.45 C 531.16 192.47 524.96 192.71 528.42 194.12 C 531.88 195.53 531.96 193.73 535.10 190.98 C 538.24 188.24 534.20 188.75 536.26 187.25 C 538.33 185.76 534.78 189.06 540.26 187.25 C 545.74 185.45 545.23 185.18 549.97 182.75 C 554.70 180.31 550.49 184.16 552.09 181.18 C 553.70 178.20 551.05 179.69 553.99 175.29 C 556.92 170.90 557.03 172.24 559.43 170.20 C 561.84 168.16 559.72 168.31 560.00 170.20 C 560.28 172.08 557.11 170.35 560.14 174.90 C 563.16 179.45 562.89 180.71 567.55 181.57 C 572.22 182.43 567.76 178.24 571.80 177.06 C 575.84 175.88 572.22 176.67 577.66 178.63 C 583.10 180.59 578.28 181.33 585.40 181.96 C 592.52 182.59 586.18 184.12 595.46 180.20 C 604.73 176.27 598.32 175.37 608.59 172.16 C 618.86 168.94 614.73 171.84 621.13 172.16 C 627.53 172.47 622.24 173.33 624.59 172.94 C 626.94 172.55 624.45 175.10 627.00 171.18 C 629.55 167.25 628.68 162.59 630.96 163.14 C 633.25 163.69 629.51 167.53 632.71 172.55 C 635.91 177.57 635.72 171.37 638.96 175.69 C 642.21 180.00 634.60 181.45 640.82 183.33 C 647.04 185.22 630.12 186.04 654.51 180.39 C 678.91 174.75 631.45 178.08 701.81 169.22 C 772.16 160.35 777.39 161.76 830.40 158.24 C 883.42 154.71 831.19 163.92 834.33 160.39 C 837.48 156.86 834.25 151.84 838.27 149.41 C 842.29 146.98 840.41 151.02 844.37 154.31 C 848.33 157.61 846.59 153.57 848.16 157.65 C 849.74 161.73 847.47 164.27 848.31 164.51 C 849.15 164.75 848.75 158.94 850.27 158.24 C 851.80 157.53 851.31 159.06 852.12 162.75 C 852.94 166.43 849.15 165.65 852.30 167.45 C 855.45 169.25 856.92 167.33 860.00 167.25 L 860.00 360 L 70.00 360 Z" fill="url(#fillGrad)">
    <animate attributeName="opacity" dur="4.5s" repeatCount="indefinite"
      keyTimes="0;0.15;0.55;0.82;0.94;1"
      values="0;0.1;1;1;0;0" calcMode="linear"/>
  </path>

  <!-- Animated glow duplicate line (blurred, wider) -->
  <path d="M 70.00 344.31 C 70.17 316.08 69.61 300.24 70.43 273.73 C 71.26 247.22 71.26 280.08 72.05 278.04 C 72.85 276.00 71.78 273.02 72.43 268.63 C 73.08 264.24 72.45 265.10 73.69 267.06 C 74.92 269.02 73.08 274.47 75.51 273.53 C 77.95 272.59 76.33 266.12 79.78 264.71 C 83.22 263.29 80.97 271.65 84.13 270.00 C 87.29 268.35 84.04 264.43 87.68 260.59 C 91.31 256.75 86.16 259.76 93.22 260.39 C 100.28 261.02 98.88 264.20 105.33 262.16 C 111.77 260.12 107.60 258.04 109.33 255.29 C 111.07 252.55 107.92 259.61 109.66 255.29 C 111.41 250.98 108.88 251.02 113.70 244.51 C 118.52 238.00 116.34 243.25 121.72 239.02 C 127.10 234.78 123.97 239.18 127.15 233.92 C 130.34 228.67 128.60 226.59 129.68 225.88 C 130.77 225.18 129.06 233.49 129.87 232.16 C 130.67 230.82 130.44 225.84 131.70 222.55 C 132.97 219.25 132.26 224.00 133.03 223.92 C 133.80 223.84 132.56 220.47 133.62 222.35 C 134.68 224.24 134.13 226.20 135.68 228.63 C 137.24 231.06 135.32 230.71 137.51 228.43 C 139.70 226.16 139.06 222.08 141.15 222.94 C 143.25 223.80 140.18 227.61 142.75 230.59 C 145.32 233.57 145.25 232.51 147.58 230.39 C 149.91 228.27 147.96 227.33 148.57 225.29 C 149.17 223.25 148.42 223.88 149.09 225.29 C 149.76 226.71 149.66 222.39 150.23 228.82 C 150.81 235.25 150.25 236.98 150.53 241.37 C 150.80 245.76 150.51 240.20 150.93 239.80 C 151.34 239.41 150.99 237.10 151.57 240.39 C 152.15 243.69 151.94 244.82 152.38 248.04 C 152.83 251.25 151.91 252.67 152.68 248.43 C 153.45 244.20 153.03 237.45 154.31 237.45 C 155.59 237.45 151.04 241.84 155.88 248.43 C 160.73 255.02 160.63 252.59 166.42 253.92 C 172.22 255.25 167.99 252.47 170.37 251.76 C 172.75 251.06 169.33 251.61 172.37 252.16 C 175.41 252.71 175.34 252.59 177.97 253.14 C 180.61 253.69 176.94 255.33 178.96 253.53 C 180.98 251.73 178.18 252.86 183.02 248.63 C 187.87 244.39 187.06 252.20 191.06 242.94 C 195.07 233.69 191.24 229.88 193.03 225.49 C 194.82 221.10 193.43 231.41 195.54 231.96 C 197.66 232.51 195.93 228.27 198.32 226.86 C 200.71 225.45 198.82 227.10 201.53 228.43 C 204.24 229.76 202.50 227.14 205.09 230.20 C 207.68 233.25 205.75 238.12 207.99 236.08 C 210.24 234.04 208.90 224.47 210.70 225.10 C 212.50 225.73 210.87 232.31 212.49 237.65 C 214.11 242.98 213.78 234.98 214.74 238.43 C 215.71 241.88 213.79 245.49 214.91 246.27 C 216.02 247.06 215.45 246.75 217.53 240.39 C 219.60 234.04 218.24 234.86 220.10 230.39 C 221.96 225.92 218.77 229.14 222.17 229.22 C 225.57 229.29 224.94 230.04 228.60 230.59 C 232.25 231.14 229.73 229.41 231.32 230.59 C 232.91 231.76 229.42 236.27 232.57 233.53 C 235.72 230.78 234.55 232.12 239.18 223.73 C 243.81 215.33 240.87 216.94 244.15 212.55 C 247.43 208.16 245.41 214.63 247.38 212.75 C 249.35 210.86 248.02 206.75 249.08 207.84 C 250.13 208.94 249.07 209.29 250.01 215.49 C 250.96 221.69 250.09 221.29 251.45 223.33 C 252.80 225.37 250.30 226.16 253.39 220.59 C 256.48 215.02 256.55 213.73 259.17 209.41 C 261.78 205.10 258.06 209.18 259.93 209.80 C 261.80 210.43 246.52 213.02 263.84 210.98 C 281.17 208.94 281.99 207.45 303.26 204.71 C 324.52 201.96 306.71 202.94 317.01 204.12 C 327.32 205.29 323.06 205.92 329.02 207.65 C 334.98 209.37 327.19 207.10 331.91 208.43 C 336.63 209.76 334.97 212.16 340.82 210.98 C 346.66 209.80 340.23 208.31 346.52 205.49 C 352.80 202.67 350.98 199.53 356.53 203.92 C 362.09 208.31 357.96 212.00 360.40 216.47 C 362.84 220.94 358.67 218.16 362.63 215.10 C 366.60 212.04 366.40 214.24 370.31 208.82 C 374.23 203.41 370.72 201.33 372.43 201.57 C 374.14 201.80 372.23 208.24 374.59 209.41 C 376.94 210.59 375.26 207.57 378.32 204.51 C 381.38 201.45 379.82 203.49 382.23 201.76 C 384.64 200.04 382.07 200.27 384.34 200.20 C 386.60 200.12 384.90 202.90 387.90 201.57 C 390.90 200.24 389.42 197.57 391.85 196.86 C 394.28 196.16 391.97 201.37 393.97 199.80 C 395.98 198.24 394.54 196.55 396.86 192.94 C 399.17 189.33 397.00 191.73 399.76 190.78 C 402.52 189.84 398.92 192.08 403.76 190.59 C 408.60 189.10 407.00 188.63 411.86 187.06 C 416.72 185.49 412.74 185.73 415.91 186.67 C 419.08 187.61 415.54 188.08 419.79 189.41 C 424.04 190.75 422.58 188.98 426.53 190.00 C 430.49 191.02 426.93 191.73 429.67 191.96 C 432.41 192.20 426.28 192.24 433.39 190.59 C 440.50 188.94 440.26 192.08 447.45 187.84 C 454.64 183.61 448.42 185.65 451.37 180.00 C 454.32 174.35 453.24 172.71 454.82 173.73 C 456.40 174.75 454.33 178.55 455.32 182.55 C 456.30 186.55 455.68 184.04 457.29 183.73 C 458.91 183.41 456.23 178.55 459.35 181.76 C 462.47 184.98 462.72 185.73 465.09 191.76 C 467.46 197.80 463.66 196.71 465.27 196.86 C 466.89 197.02 466.71 193.57 469.13 192.16 C 471.55 190.75 467.37 191.84 471.32 193.33 C 475.28 194.82 475.08 195.10 479.02 195.88 C 482.95 196.67 479.84 194.98 481.16 195.29 C 482.49 195.61 480.81 196.98 482.33 196.67 C 483.84 196.35 479.95 193.41 484.95 194.51 C 489.95 195.61 490.05 199.80 494.83 199.41 C 499.60 199.02 495.30 196.35 496.89 193.53 C 498.48 190.71 495.80 191.49 498.80 192.35 C 501.79 193.22 499.65 198.90 504.38 195.69 C 509.10 192.47 505.70 189.96 510.60 184.31 C 515.51 178.67 510.31 180.31 516.65 181.57 C 522.98 182.82 521.74 182.43 526.45 187.45 C 531.16 192.47 524.96 192.71 528.42 194.12 C 531.88 195.53 531.96 193.73 535.10 190.98 C 538.24 188.24 534.20 188.75 536.26 187.25 C 538.33 185.76 534.78 189.06 540.26 187.25 C 545.74 185.45 545.23 185.18 549.97 182.75 C 554.70 180.31 550.49 184.16 552.09 181.18 C 553.70 178.20 551.05 179.69 553.99 175.29 C 556.92 170.90 557.03 172.24 559.43 170.20 C 561.84 168.16 559.72 168.31 560.00 170.20 C 560.28 172.08 557.11 170.35 560.14 174.90 C 563.16 179.45 562.89 180.71 567.55 181.57 C 572.22 182.43 567.76 178.24 571.80 177.06 C 575.84 175.88 572.22 176.67 577.66 178.63 C 583.10 180.59 578.28 181.33 585.40 181.96 C 592.52 182.59 586.18 184.12 595.46 180.20 C 604.73 176.27 598.32 175.37 608.59 172.16 C 618.86 168.94 614.73 171.84 621.13 172.16 C 627.53 172.47 622.24 173.33 624.59 172.94 C 626.94 172.55 624.45 175.10 627.00 171.18 C 629.55 167.25 628.68 162.59 630.96 163.14 C 633.25 163.69 629.51 167.53 632.71 172.55 C 635.91 177.57 635.72 171.37 638.96 175.69 C 642.21 180.00 634.60 181.45 640.82 183.33 C 647.04 185.22 630.12 186.04 654.51 180.39 C 678.91 174.75 631.45 178.08 701.81 169.22 C 772.16 160.35 777.39 161.76 830.40 158.24 C 883.42 154.71 831.19 163.92 834.33 160.39 C 837.48 156.86 834.25 151.84 838.27 149.41 C 842.29 146.98 840.41 151.02 844.37 154.31 C 848.33 157.61 846.59 153.57 848.16 157.65 C 849.74 161.73 847.47 164.27 848.31 164.51 C 849.15 164.75 848.75 158.94 850.27 158.24 C 851.80 157.53 851.31 159.06 852.12 162.75 C 852.94 166.43 849.15 165.65 852.30 167.45 C 855.45 169.25 856.92 167.33 860.00 167.25" fill="none" stroke="#3ecf8e" stroke-width="5"
        stroke-linecap="round" stroke-linejoin="round"
        stroke-dasharray="1738" stroke-dashoffset="1738"
        opacity="0.35" filter="url(#lineGlow)">
    <animate attributeName="stroke-dashoffset" dur="4.5s" repeatCount="indefinite"
      keyTimes="0;0.55;0.82;0.93;1"
      values="1738;0;0;1738;1738"
      keySplines="0.16 1 0.3 1;0 0 1 1;0.7 0 1 1;0 0 1 1"
      calcMode="spline"/>
  </path>

  <!-- Main animated wave line -->
  <path d="M 70.00 344.31 C 70.17 316.08 69.61 300.24 70.43 273.73 C 71.26 247.22 71.26 280.08 72.05 278.04 C 72.85 276.00 71.78 273.02 72.43 268.63 C 73.08 264.24 72.45 265.10 73.69 267.06 C 74.92 269.02 73.08 274.47 75.51 273.53 C 77.95 272.59 76.33 266.12 79.78 264.71 C 83.22 263.29 80.97 271.65 84.13 270.00 C 87.29 268.35 84.04 264.43 87.68 260.59 C 91.31 256.75 86.16 259.76 93.22 260.39 C 100.28 261.02 98.88 264.20 105.33 262.16 C 111.77 260.12 107.60 258.04 109.33 255.29 C 111.07 252.55 107.92 259.61 109.66 255.29 C 111.41 250.98 108.88 251.02 113.70 244.51 C 118.52 238.00 116.34 243.25 121.72 239.02 C 127.10 234.78 123.97 239.18 127.15 233.92 C 130.34 228.67 128.60 226.59 129.68 225.88 C 130.77 225.18 129.06 233.49 129.87 232.16 C 130.67 230.82 130.44 225.84 131.70 222.55 C 132.97 219.25 132.26 224.00 133.03 223.92 C 133.80 223.84 132.56 220.47 133.62 222.35 C 134.68 224.24 134.13 226.20 135.68 228.63 C 137.24 231.06 135.32 230.71 137.51 228.43 C 139.70 226.16 139.06 222.08 141.15 222.94 C 143.25 223.80 140.18 227.61 142.75 230.59 C 145.32 233.57 145.25 232.51 147.58 230.39 C 149.91 228.27 147.96 227.33 148.57 225.29 C 149.17 223.25 148.42 223.88 149.09 225.29 C 149.76 226.71 149.66 222.39 150.23 228.82 C 150.81 235.25 150.25 236.98 150.53 241.37 C 150.80 245.76 150.51 240.20 150.93 239.80 C 151.34 239.41 150.99 237.10 151.57 240.39 C 152.15 243.69 151.94 244.82 152.38 248.04 C 152.83 251.25 151.91 252.67 152.68 248.43 C 153.45 244.20 153.03 237.45 154.31 237.45 C 155.59 237.45 151.04 241.84 155.88 248.43 C 160.73 255.02 160.63 252.59 166.42 253.92 C 172.22 255.25 167.99 252.47 170.37 251.76 C 172.75 251.06 169.33 251.61 172.37 252.16 C 175.41 252.71 175.34 252.59 177.97 253.14 C 180.61 253.69 176.94 255.33 178.96 253.53 C 180.98 251.73 178.18 252.86 183.02 248.63 C 187.87 244.39 187.06 252.20 191.06 242.94 C 195.07 233.69 191.24 229.88 193.03 225.49 C 194.82 221.10 193.43 231.41 195.54 231.96 C 197.66 232.51 195.93 228.27 198.32 226.86 C 200.71 225.45 198.82 227.10 201.53 228.43 C 204.24 229.76 202.50 227.14 205.09 230.20 C 207.68 233.25 205.75 238.12 207.99 236.08 C 210.24 234.04 208.90 224.47 210.70 225.10 C 212.50 225.73 210.87 232.31 212.49 237.65 C 214.11 242.98 213.78 234.98 214.74 238.43 C 215.71 241.88 213.79 245.49 214.91 246.27 C 216.02 247.06 215.45 246.75 217.53 240.39 C 219.60 234.04 218.24 234.86 220.10 230.39 C 221.96 225.92 218.77 229.14 222.17 229.22 C 225.57 229.29 224.94 230.04 228.60 230.59 C 232.25 231.14 229.73 229.41 231.32 230.59 C 232.91 231.76 229.42 236.27 232.57 233.53 C 235.72 230.78 234.55 232.12 239.18 223.73 C 243.81 215.33 240.87 216.94 244.15 212.55 C 247.43 208.16 245.41 214.63 247.38 212.75 C 249.35 210.86 248.02 206.75 249.08 207.84 C 250.13 208.94 249.07 209.29 250.01 215.49 C 250.96 221.69 250.09 221.29 251.45 223.33 C 252.80 225.37 250.30 226.16 253.39 220.59 C 256.48 215.02 256.55 213.73 259.17 209.41 C 261.78 205.10 258.06 209.18 259.93 209.80 C 261.80 210.43 246.52 213.02 263.84 210.98 C 281.17 208.94 281.99 207.45 303.26 204.71 C 324.52 201.96 306.71 202.94 317.01 204.12 C 327.32 205.29 323.06 205.92 329.02 207.65 C 334.98 209.37 327.19 207.10 331.91 208.43 C 336.63 209.76 334.97 212.16 340.82 210.98 C 346.66 209.80 340.23 208.31 346.52 205.49 C 352.80 202.67 350.98 199.53 356.53 203.92 C 362.09 208.31 357.96 212.00 360.40 216.47 C 362.84 220.94 358.67 218.16 362.63 215.10 C 366.60 212.04 366.40 214.24 370.31 208.82 C 374.23 203.41 370.72 201.33 372.43 201.57 C 374.14 201.80 372.23 208.24 374.59 209.41 C 376.94 210.59 375.26 207.57 378.32 204.51 C 381.38 201.45 379.82 203.49 382.23 201.76 C 384.64 200.04 382.07 200.27 384.34 200.20 C 386.60 200.12 384.90 202.90 387.90 201.57 C 390.90 200.24 389.42 197.57 391.85 196.86 C 394.28 196.16 391.97 201.37 393.97 199.80 C 395.98 198.24 394.54 196.55 396.86 192.94 C 399.17 189.33 397.00 191.73 399.76 190.78 C 402.52 189.84 398.92 192.08 403.76 190.59 C 408.60 189.10 407.00 188.63 411.86 187.06 C 416.72 185.49 412.74 185.73 415.91 186.67 C 419.08 187.61 415.54 188.08 419.79 189.41 C 424.04 190.75 422.58 188.98 426.53 190.00 C 430.49 191.02 426.93 191.73 429.67 191.96 C 432.41 192.20 426.28 192.24 433.39 190.59 C 440.50 188.94 440.26 192.08 447.45 187.84 C 454.64 183.61 448.42 185.65 451.37 180.00 C 454.32 174.35 453.24 172.71 454.82 173.73 C 456.40 174.75 454.33 178.55 455.32 182.55 C 456.30 186.55 455.68 184.04 457.29 183.73 C 458.91 183.41 456.23 178.55 459.35 181.76 C 462.47 184.98 462.72 185.73 465.09 191.76 C 467.46 197.80 463.66 196.71 465.27 196.86 C 466.89 197.02 466.71 193.57 469.13 192.16 C 471.55 190.75 467.37 191.84 471.32 193.33 C 475.28 194.82 475.08 195.10 479.02 195.88 C 482.95 196.67 479.84 194.98 481.16 195.29 C 482.49 195.61 480.81 196.98 482.33 196.67 C 483.84 196.35 479.95 193.41 484.95 194.51 C 489.95 195.61 490.05 199.80 494.83 199.41 C 499.60 199.02 495.30 196.35 496.89 193.53 C 498.48 190.71 495.80 191.49 498.80 192.35 C 501.79 193.22 499.65 198.90 504.38 195.69 C 509.10 192.47 505.70 189.96 510.60 184.31 C 515.51 178.67 510.31 180.31 516.65 181.57 C 522.98 182.82 521.74 182.43 526.45 187.45 C 531.16 192.47 524.96 192.71 528.42 194.12 C 531.88 195.53 531.96 193.73 535.10 190.98 C 538.24 188.24 534.20 188.75 536.26 187.25 C 538.33 185.76 534.78 189.06 540.26 187.25 C 545.74 185.45 545.23 185.18 549.97 182.75 C 554.70 180.31 550.49 184.16 552.09 181.18 C 553.70 178.20 551.05 179.69 553.99 175.29 C 556.92 170.90 557.03 172.24 559.43 170.20 C 561.84 168.16 559.72 168.31 560.00 170.20 C 560.28 172.08 557.11 170.35 560.14 174.90 C 563.16 179.45 562.89 180.71 567.55 181.57 C 572.22 182.43 567.76 178.24 571.80 177.06 C 575.84 175.88 572.22 176.67 577.66 178.63 C 583.10 180.59 578.28 181.33 585.40 181.96 C 592.52 182.59 586.18 184.12 595.46 180.20 C 604.73 176.27 598.32 175.37 608.59 172.16 C 618.86 168.94 614.73 171.84 621.13 172.16 C 627.53 172.47 622.24 173.33 624.59 172.94 C 626.94 172.55 624.45 175.10 627.00 171.18 C 629.55 167.25 628.68 162.59 630.96 163.14 C 633.25 163.69 629.51 167.53 632.71 172.55 C 635.91 177.57 635.72 171.37 638.96 175.69 C 642.21 180.00 634.60 181.45 640.82 183.33 C 647.04 185.22 630.12 186.04 654.51 180.39 C 678.91 174.75 631.45 178.08 701.81 169.22 C 772.16 160.35 777.39 161.76 830.40 158.24 C 883.42 154.71 831.19 163.92 834.33 160.39 C 837.48 156.86 834.25 151.84 838.27 149.41 C 842.29 146.98 840.41 151.02 844.37 154.31 C 848.33 157.61 846.59 153.57 848.16 157.65 C 849.74 161.73 847.47 164.27 848.31 164.51 C 849.15 164.75 848.75 158.94 850.27 158.24 C 851.80 157.53 851.31 159.06 852.12 162.75 C 852.94 166.43 849.15 165.65 852.30 167.45 C 855.45 169.25 856.92 167.33 860.00 167.25" fill="none" stroke="url(#lineGrad)" stroke-width="2.8"
        stroke-linecap="round" stroke-linejoin="round"
        stroke-dasharray="1738" stroke-dashoffset="1738">
    <animate attributeName="stroke-dashoffset" dur="4.5s" repeatCount="indefinite"
      keyTimes="0;0.55;0.82;0.93;1"
      values="1738;0;0;1738;1738"
      keySplines="0.16 1 0.3 1;0 0 1 1;0.7 0 1 1;0 0 1 1"
      calcMode="spline"/>
  </path>

  <!-- ── START DOT ── -->
  <circle cx="70.0" cy="344.3" r="4" fill="#6e7681" stroke="#0d1117" stroke-width="2"/>
  <rect x="77.0" y="333.3" width="64" height="20" rx="5"
        fill="#1c2128" stroke="#30363d" stroke-width="0.8"/>
  <text x="109.0" y="347.3" text-anchor="middle"
        fill="#8b949e" font-family="'Segoe UI',sans-serif" font-size="10" font-weight="700">Start: 238</text>

  <!-- ── PEAK BADGE (animated) ── -->
  <g>
    <animate attributeName="opacity" dur="4.5s" repeatCount="indefinite"
      keyTimes="0;0.38;0.52;0.82;0.93;1"
      values="0;0;1;1;0;0"/>
    <!-- leader line -->
    <line x1="825.3" y1="135.0" x2="838.3" y2="149.4"
          stroke="#d29922" stroke-width="1" stroke-dasharray="3 4" opacity="0.7"/>
    <!-- glow ring -->
    <circle cx="838.3" cy="149.4" r="11" fill="#d29922" fill-opacity="0.15" filter="url(#peakGlow)"/>
    <!-- outer ring -->
    <circle cx="838.3" cy="149.4" r="7.5" fill="none" stroke="#d29922" stroke-width="1.5" opacity="0.6"/>
    <!-- core dot -->
    <circle cx="838.3" cy="149.4" r="5" fill="#d29922" stroke="#0d1117" stroke-width="2" filter="url(#glow)"/>
    <!-- badge box -->
    <rect x="713.3" y="122.0" width="112" height="26" rx="7"
          fill="#1a1700" stroke="#d29922" stroke-width="1.5"/>
    <text x="769.3" y="139.0" text-anchor="middle"
          fill="#d29922" font-family="'Segoe UI',sans-serif" font-size="11.5" font-weight="800">Peak 1232 &#9813;</text>
  </g>

  <!-- ── CURRENT BADGE (animated) ── -->
  <g>
    <animate attributeName="opacity" dur="4.5s" repeatCount="indefinite"
      keyTimes="0;0.44;0.57;0.82;0.93;1"
      values="0;0;1;1;0;0"/>
    <!-- leader line -->
    <line x1="845.0" y1="220.3" x2="860.0" y2="167.3"
          stroke="#3fb950" stroke-width="1" stroke-dasharray="3 4" opacity="0.7"/>
    <!-- pulse ring -->
    <circle cx="860.0" cy="167.3" r="10" fill="#3fb950" fill-opacity="0.12" filter="url(#glow)">
      <animate attributeName="r" dur="1.8s" repeatCount="indefinite" values="6;14;6"/>
      <animate attributeName="opacity" dur="1.8s" repeatCount="indefinite" values="0.5;0;0.5"/>
    </circle>
    <!-- core dot -->
    <circle cx="860.0" cy="167.3" r="5.5" fill="#3fb950" stroke="#0d1117" stroke-width="2.5" filter="url(#glow)"/>
    <!-- badge box -->
    <rect x="745.0" y="207.3" width="100" height="26" rx="7"
          fill="#091e13" stroke="#238636" stroke-width="1.5"/>
    <text x="795.0" y="224.3" text-anchor="middle"
          fill="#3fb950" font-family="'Segoe UI',sans-serif" font-size="11.5" font-weight="800">Now: 1141</text>
  </g>

</svg>